<svg xmlns="http://www.w3.org/2000/svg" viewBox="0 0 60.83 57.7"><defs><style>.cls-1{fill:#c4d649;}</style></defs><title>1_10</title><g id="Capa_2" data-name="Capa 2"><g id="Capa_1-2" data-name="Capa 1"><path class="cls-1" d="M37.32,36.2a18.72,18.72,0,0,1-2.6.82,15.23,15.23,0,0,1,.12,1.92A16,16,0,0,1,30.42,50a16,16,0,0,0,2,1.78,18.66,18.66,0,0,0,5.11-12.85A17.77,17.77,0,0,0,37.32,36.2ZM18.76,55a16.07,16.07,0,0,1-6.31-30.86,19.38,19.38,0,0,1-.6-2.66A18.76,18.76,0,1,0,30.41,53.63a18.33,18.33,0,0,1-2-1.84A16,16,0,0,1,18.76,55Zm0-34.83a18.56,18.56,0,0,0-4.31.5A16.23,16.23,0,0,0,15,23.31a16.14,16.14,0,0,1,3.77-.44,16,16,0,0,1,9.65,3.23,18.33,18.33,0,0,1,2-1.84A18.65,18.65,0,0,0,18.76,20.19ZM32.41,26.1a15.25,15.25,0,0,0-2,1.78,16.15,16.15,0,0,1,3.76,6.51,15.89,15.89,0,0,0,2.55-.85A18.8,18.8,0,0,0,32.41,26.1Z"/><path class="cls-1" d="M60.83,38.94A18.75,18.75,0,0,1,30.41,53.63a18.33,18.33,0,0,1-2-1.84,18.7,18.7,0,0,1-5.1-12.85,17.77,17.77,0,0,1,.2-2.74,18.31,18.31,0,0,0,2.6.82A15.23,15.23,0,0,0,26,38.94,16.08,16.08,0,1,0,48.38,24.16,18,18,0,0,0,49,21.5,18.79,18.79,0,0,1,60.83,38.94Z"/><path class="cls-1" d="M30.41,0A18.79,18.79,0,0,0,11.65,18.76a19,19,0,0,0,.2,2.74,19.38,19.38,0,0,0,.6,2.66,18.82,18.82,0,0,0,11.06,12,18.31,18.31,0,0,0,2.6.82,18.78,18.78,0,0,0,8.61,0A18.8,18.8,0,0,0,48.38,24.16,18,18,0,0,0,49,21.5a19,19,0,0,0,.2-2.74A18.78,18.78,0,0,0,30.41,0Zm16,20.69a15.22,15.22,0,0,1-.54,2.62,16.12,16.12,0,0,1-9.1,10.23,15.89,15.89,0,0,1-2.55.85,16,16,0,0,1-7.53,0,15,15,0,0,1-2.55-.85,16.05,16.05,0,0,1-9.65-12.85,17.55,17.55,0,0,1-.11-1.93,16.08,16.08,0,1,1,32.15,0A15.39,15.39,0,0,1,46.37,20.69Z"/><path class="cls-1" d="M46.37,20.69a15.22,15.22,0,0,1-.54,2.62A16.12,16.12,0,0,0,32.41,26.1a15.25,15.25,0,0,0-2,1.78,16,16,0,0,0-3.77,6.51,15,15,0,0,1-2.55-.85,18.78,18.78,0,0,1,4.31-7.44,18.33,18.33,0,0,1,2-1.84,18.66,18.66,0,0,1,11.66-4.07A18.47,18.47,0,0,1,46.37,20.69Z"/></g></g></svg>