<svg xmlns="http://www.w3.org/2000/svg" xmlns:xlink="http://www.w3.org/1999/xlink" viewBox="0 0 41.73 59.71"><defs><style>.cls-1{fill:url(#Degradado_sin_nombre_6);}</style><linearGradient id="Degradado_sin_nombre_6" y1="29.85" x2="41.73" y2="29.85" gradientUnits="userSpaceOnUse"><stop offset="0" stop-color="#c4d649"/><stop offset="1" stop-color="#c4d649"/></linearGradient></defs><title>2_10</title><g id="Capa_2" data-name="Capa 2"><g id="Capa_1-2" data-name="Capa 1"><path class="cls-1" d="M39.13,9.73,23.47.7a5.21,5.21,0,0,0-5.21,0L2.6,9.73A5.24,5.24,0,0,0,0,14.25V32.32a5.24,5.24,0,0,0,2.6,4.52L8,39.94,8.1,50.62a3.63,3.63,0,0,0,1.77,3.07l9.32,5.51a3.55,3.55,0,0,0,1.84.51,3.51,3.51,0,0,0,1.8-.49L32,54a3.59,3.59,0,0,0,1.8-3.17L33.64,40l5.49-3.17a5.24,5.24,0,0,0,2.6-4.52V14.25A5.24,5.24,0,0,0,39.13,9.73ZM31.19,50.82a1.07,1.07,0,0,1-.52.92L21.55,57a1.06,1.06,0,0,1-1.06,0l-9.32-5.52a1.06,1.06,0,0,1-.51-.89l-.1-9.16,7.7,4.44a5.2,5.2,0,0,0,5.21,0l7.62-4.39Zm-20.06-12,9-5.22a1.06,1.06,0,0,1,1.06,0L30.32,39l-8.13,4.69a2.67,2.67,0,0,1-2.65,0Zm28-6.48a2.64,2.64,0,0,1-1.33,2.29l-5.14,3a3.78,3.78,0,0,0-.84-.69l-9.32-5.51a3.57,3.57,0,0,0-3.64,0L9.78,36.62a3.58,3.58,0,0,0-1,.83L3.89,34.61a2.64,2.64,0,0,1-1.33-2.29V14.25A2.64,2.64,0,0,1,3.89,12l15.65-9a2.62,2.62,0,0,1,2.65,0l15.65,9a2.64,2.64,0,0,1,1.33,2.29Z"/></g></g></svg>