<svg xmlns="http://www.w3.org/2000/svg" xmlns:xlink="http://www.w3.org/1999/xlink" viewBox="0 0 59.03 58.02"><defs><style>.cls-1{fill:url(#Degradado_sin_nombre_5);}</style><linearGradient id="Degradado_sin_nombre_5" y1="29.01" x2="59.03" y2="29.01" gradientUnits="userSpaceOnUse"><stop offset="0" stop-color="#c4d649"/><stop offset="1" stop-color="#c4d649"/></linearGradient></defs><title>3_10</title><g id="Capa_2" data-name="Capa 2"><g id="Capa_1-2" data-name="Capa 1"><path class="cls-1" d="M59,1.13A1.33,1.33,0,0,0,57.65,0a37.89,37.89,0,0,0-7.36.46A31,31,0,0,0,36.36,6a20.08,20.08,0,0,0-6.86,9.37,21.13,21.13,0,0,0-5.83-8.54C18.55,2.29,11.07,0,1.45,0a1.6,1.6,0,0,0-1,.35A1.1,1.1,0,0,0,0,1.19C0,9.1,2.79,15.24,8.29,19.45c4.54,3.48,10.09,4.91,13.94,5.51,1.51.23,2.87.36,4,.42-5.28,5-7.85,10.31-7.61,15.76.22,5.09,2.9,9.33,5.11,12a28.68,28.68,0,0,0,4.81,4.6,1.64,1.64,0,0,0,1,.29,1.62,1.62,0,0,0,.95-.29,28.68,28.68,0,0,0,4.81-4.6c2.21-2.66,4.9-6.9,5.12-12,.23-5.47-2.34-10.77-7.65-15.79,8.07-.46,14.46-2.72,19-6.72a21.58,21.58,0,0,0,6.7-11.45A21.23,21.23,0,0,0,59,1.13ZM56.12,2.39C56.06,5,55.33,12,49.6,17,45.31,20.8,39.05,22.82,31,23c.26-6.62,2.73-11.77,7.33-15.29C44.49,3,53,2.44,56.12,2.39ZM37.49,41c-.29,6.91-5.77,12.25-8,14.13-2.21-1.88-7.67-7.2-8-14.11-.23-5.18,2.46-10.25,8-15.09C35,30.8,37.71,35.87,37.49,41Zm-9.44-18c-3.17,0-11.61-.63-17.78-5.35C5.66,14.18,3.19,9,2.92,2.4c8.06.22,14.32,2.25,18.62,6C27.27,13.49,28,20.44,28.05,23.06Z"/></g></g></svg>