<svg xmlns="http://www.w3.org/2000/svg" xmlns:xlink="http://www.w3.org/1999/xlink" viewBox="0 0 55.18 55.17"><defs><style>.cls-1{fill:url(#Degradado_sin_nombre_4);}.cls-2{fill:url(#Degradado_sin_nombre_4-2);}</style><linearGradient id="Degradado_sin_nombre_4" x1="34.99" y1="17.49" x2="0" y2="17.49" gradientUnits="userSpaceOnUse"><stop offset="0" stop-color="#c4d649"/><stop offset="1" stop-color="#c4d649"/></linearGradient><linearGradient id="Degradado_sin_nombre_4-2" x1="55.18" y1="37.68" x2="20.18" y2="37.68" xlink:href="#Degradado_sin_nombre_4"/></defs><title>5_10</title><g id="Capa_2" data-name="Capa 2"><g id="Capa_1-2" data-name="Capa 1"><path class="cls-1" d="M32.14,20.18V2.85H8.71A5.87,5.87,0,0,0,2.85,8.71V32.14H32.14V23H35V35H0V8.71A8.72,8.72,0,0,1,8.71,0H35V20.18Z"/><path class="cls-2" d="M55.18,20.18V46.46a8.72,8.72,0,0,1-8.72,8.71H20.18V35H23V52.32H46.46a5.86,5.86,0,0,0,5.87-5.86V23H23v9.11H20.18v-12Z"/></g></g></svg>