<svg xmlns="http://www.w3.org/2000/svg" xmlns:xlink="http://www.w3.org/1999/xlink" viewBox="0 0 61.82 57.18"><defs><style>.cls-1{fill:url(#Degradado_sin_nombre_2);}</style><linearGradient id="Degradado_sin_nombre_2" y1="28.59" x2="61.82" y2="28.59" gradientUnits="userSpaceOnUse"><stop offset="0" stop-color="#c4d649"/><stop offset="1" stop-color="#c4d649"/></linearGradient></defs><title>5_20</title><g id="Capa_2" data-name="Capa 2"><g id="Capa_1-2" data-name="Capa 1"><path class="cls-1" d="M53.16,15.82A8.44,8.44,0,0,0,44.5,24v0l-5,.91A11.09,11.09,0,0,0,22.2,19.56L15.64,13a7.81,7.81,0,0,0,1.69-4.83A8.45,8.45,0,0,0,8.66,0,8.44,8.44,0,0,0,0,8.18a8.45,8.45,0,0,0,8.66,8.19,9,9,0,0,0,4.71-1.32L20,21.72a11.06,11.06,0,0,0,1.39,14.91l-4.07,5a9.14,9.14,0,0,0-3.67-.78A8.44,8.44,0,0,0,5,49a8.44,8.44,0,0,0,8.66,8.19A8.44,8.44,0,0,0,22.35,49,7.91,7.91,0,0,0,19.9,43.3L24,38.36a10.92,10.92,0,0,0,4.93,1.17A11.12,11.12,0,0,0,40,28.42c0-.16,0-.32,0-.47L45.11,27a8.69,8.69,0,0,0,8,5.17A8.45,8.45,0,0,0,61.82,24,8.44,8.44,0,0,0,53.16,15.82ZM13.69,54.13A5.4,5.4,0,0,1,8.08,49a5.39,5.39,0,0,1,5.61-5.13A5.39,5.39,0,0,1,19.3,49,5.4,5.4,0,0,1,13.69,54.13ZM3.05,8.18A5.39,5.39,0,0,1,8.66,3.05a5.39,5.39,0,0,1,5.61,5.13,5.4,5.4,0,0,1-5.61,5.14A5.4,5.4,0,0,1,3.05,8.18Zm25.84,28.3A8.07,8.07,0,1,1,37,28.42,8.07,8.07,0,0,1,28.89,36.48Zm24.27-7.35A5.39,5.39,0,0,1,47.55,24a5.63,5.63,0,0,1,11.22,0A5.39,5.39,0,0,1,53.16,29.13Z"/></g></g></svg>