<?xml version="1.0" ?>
<!DOCTYPE svg  PUBLIC '-//W3C//DTD SVG 1.1//EN'  'http://www.w3.org/Graphics/SVG/1.1/DTD/svg11.dtd'>
<!-- Uploaded to: SVG Repo, www.svgrepo.com, Generator: SVG Repo Mixer Tools -->
<svg fill="#000000" width="800px" height="800px" viewBox="0 0 100 100" enable-background="new 0 0 100 100" id="Layer_1" version="1.1" xml:space="preserve" xmlns="http://www.w3.org/2000/svg" xmlns:xlink="http://www.w3.org/1999/xlink">
<g>
<path d="M32.9,69c0.9,5.3,5.3,11.1,9.4,13.9c2.5,1.7,5.3,2.5,8,2.5c0.9,0,1.7-0.1,2.5-0.3c9.7-2.1,11.7-14,10.7-21.5   c-0.5-3.8-1.6-7.6-3.2-11.3h0c7.3,0,13.2-5.9,13.2-13.2V17.1c0-1.4-1.1-2.5-2.5-2.5h-8.7v4h7.2v20.6c0,5.1-4.1,9.2-9.2,9.2h-6.3   c-5.1,0-9.2-4.1-9.2-9.2V18.6h7.3v-4h-8.8c-1.4,0-2.5,1.1-2.5,2.5v22.1c0,7.3,5.9,13.2,13.2,13.2H56c1.8,3.8,3.1,7.9,3.6,11.8   c0.8,5.8-0.6,15.6-7.6,17.1c-2.4,0.5-5.1-0.1-7.5-1.7c-3.2-2.2-6.7-6.8-7.6-10.7c3.5-1,6.2-4.2,6.2-8.1c0-4.6-3.8-8.4-8.4-8.4   s-8.4,3.8-8.4,8.4C26.4,64.8,29.2,68.2,32.9,69z M34.8,56.4c2.4,0,4.4,2,4.4,4.4s-2,4.4-4.4,4.4s-4.4-2-4.4-4.4   S32.4,56.4,34.8,56.4z"/>
</g>
</svg>