<svg xmlns="http://www.w3.org/2000/svg" viewBox="0 0 110.99 33.81"><defs><style>.cls-1{fill:#efefef;}</style></defs><title>favicon0</title><g id="Capa_2" data-name="Capa 2"><g id="Capa_1-2" data-name="Capa 1"><path class="cls-1" d="M16.93,33.81A16.91,16.91,0,1,1,33.86,16.9,16.95,16.95,0,0,1,16.93,33.81Zm0-30.59A13.69,13.69,0,1,0,30.64,16.9,13.71,13.71,0,0,0,16.93,3.22Z"/><path class="cls-1" d="M16.93,33.64A16.74,16.74,0,1,1,33.7,16.9,16.78,16.78,0,0,1,16.93,33.64Zm0-30.59A13.86,13.86,0,1,0,30.8,16.9,13.88,13.88,0,0,0,16.93,3.05Z"/><path class="cls-1" d="M10,23.87l2-2.22a.3.3,0,0,0,.06-.3.31.31,0,0,0-.25-.2l-6.29-.83.47-3.5,4.62.61h0a.29.29,0,0,0,.26-.16.3.3,0,0,0,0-.34L6.7,12.06,9.36,9.74l5.29,6.07a.27.27,0,0,0,.22.1H15a.31.31,0,0,0,.2-.29V6.79h3.53v8.82a.3.3,0,0,0,.19.28.23.23,0,0,0,.11,0,.29.29,0,0,0,.23-.1l5.28-6.07,2.67,2.32-4.25,4.88a.3.3,0,0,0,0,.34.29.29,0,0,0,.27.16h0l4.62-.61.46,3.5L22,21.15a.31.31,0,0,0-.24.2.28.28,0,0,0,.06.3l2,2.22-2.61,2.38L17.17,21.8a.33.33,0,0,0-.23-.1.32.32,0,0,0-.22.1l-4.08,4.45Z"/><path class="cls-1" d="M91,23.59c-4.48,0-7.61-2.77-7.61-6.74,0-4.16,2.74-7.06,6.66-7.06,4.08,0,6.42,2.57,6.42,7.06a8,8,0,0,1-.08,1H87.22a.13.13,0,0,0-.11.05.14.14,0,0,0,0,.12c.41,1.68,1.86,2.64,4,2.64h3.7v2.88Zm-.92-11a3.09,3.09,0,0,0-3,3,.15.15,0,0,0,0,.11.12.12,0,0,0,.1,0h5.74a.15.15,0,0,0,.11,0,.2.2,0,0,0,0-.11C92.9,13.65,91.81,12.56,90.1,12.56Z"/><path class="cls-1" d="M54.56,23.59v-9.7a3.47,3.47,0,0,1,3.77-3.78H62V13H59a1,1,0,0,0-1,1v9.6Z"/><path class="cls-1" d="M44.8,23.92A7,7,0,0,1,37.52,17a7,7,0,0,1,7.28-6.9h8.9V13H51a.14.14,0,0,0-.11.22A6.7,6.7,0,0,1,52.08,17,7,7,0,0,1,44.8,23.92Zm0-11A3.81,3.81,0,0,0,41,17a3.81,3.81,0,1,0,7.61,0A3.81,3.81,0,0,0,44.8,12.94Z"/><path class="cls-1" d="M78.05,29.47c-2.84,0-4.53-1.62-4.53-4.34a5.76,5.76,0,0,1,.16-1.45.12.12,0,0,0,0-.1.13.13,0,0,0-.09-.07c-3.43-.58-5.47-3.12-5.47-6.77,0-4.16,2.86-6.95,7.12-6.95,4.46,0,7.12,2.7,7.12,7.22v7.56C82.34,27.87,80.93,29.47,78.05,29.47Zm.73-9.19a.17.17,0,0,0-.1,0,5.91,5.91,0,0,0-2,4.54v.09c0,1.18.56,1.71,1.11,1.71,1,0,1.11-.81,1.11-1.6V20.41a.14.14,0,0,0-.09-.12Zm-3.56-7.61c-2.15,0-3.65,1.67-3.65,4.07a3.89,3.89,0,0,0,3.31,4.11h0a.14.14,0,0,0,.12-.06,11.78,11.78,0,0,1,3.84-3.31.14.14,0,0,0,.07-.12v-.51C78.92,14.23,77.53,12.67,75.22,12.67Z"/><rect class="cls-1" x="63.26" y="10.11" width="3.45" height="13.48"/><path class="cls-1" d="M107.57,23.59V15.83a3.16,3.16,0,1,0-6.31,0v7.76H97.83c0-2.25,0-4.5,0-6.75V10.1h3.1v.25a.14.14,0,0,0,.06.12l.08,0,.06,0a7.62,7.62,0,0,1,3.27-.68c3.88,0,6.58,2.48,6.58,6v7.76Z"/></g></g></svg>