<svg xmlns="http://www.w3.org/2000/svg" viewBox="0 0 677.56 159.08"><defs><style>.cls-1{fill:#fff;}</style></defs><title>logo-MSPAB0</title><g id="Capa_2" data-name="Capa 2"><g id="Capa_1-2" data-name="Capa 1"><g id="Capa_1-3" data-name="Capa_1"><path id="_240143928" data-name=" 240143928" class="cls-1" d="M125.31,106.68a20.37,20.37,0,0,1-3-.23,17.8,17.8,0,0,1-2.78-.65v-3.7a20.76,20.76,0,0,0,5.78.91,5.33,5.33,0,0,0,2.9-.61,2,2,0,0,0,.9-1.8,2.06,2.06,0,0,0-.27-1.1,2.22,2.22,0,0,0-.92-.77,9.07,9.07,0,0,0-1.81-.64l-1.55-.4a8.29,8.29,0,0,1-4.15-2.16A5.3,5.3,0,0,1,119,91.72a5.48,5.48,0,0,1,2.18-4.66c1.46-1.1,3.62-1.65,6.46-1.65a22.52,22.52,0,0,1,2.63.16,16.59,16.59,0,0,1,2.29.45v3.71a14.17,14.17,0,0,0-2.22-.48,20,20,0,0,0-2.45-.17,6.56,6.56,0,0,0-3.33.63,2,2,0,0,0-1,1.77,2.09,2.09,0,0,0,.24,1,1.9,1.9,0,0,0,.81.73,7.36,7.36,0,0,0,1.58.59l1.57.39a9.18,9.18,0,0,1,4.45,2.21,5.28,5.28,0,0,1,1.42,3.84,5.89,5.89,0,0,1-1,3.42,6.17,6.17,0,0,1-2.86,2.2,11.86,11.86,0,0,1-4.48.77Zm24.86-.27-1.71-5.53h-7.69l-1.71,5.53h-4.45l6.7-20.73H148l6.7,20.73h-4.5Zm-8.29-9.16h5.46l-2.73-8.84Zm14.85,9.16V85.68h4.57v16.94h9.52v3.79Zm24.3.27q-4.5,0-6.63-2.18t-2.12-6.69V85.68h4.58V98.26a5.18,5.18,0,0,0,1,3.56,5,5,0,0,0,6.3,0,5.13,5.13,0,0,0,1-3.56V85.68h4.49V97.81q0,4.51-2.1,6.69T181,106.68Zm18-.06a46.75,46.75,0,0,1-5.67-.33V86.15a31.69,31.69,0,0,1,6.58-.69q5.72,0,8.56,2.59c1.91,1.74,2.86,4.4,2.86,8a11.91,11.91,0,0,1-1.36,6,7.93,7.93,0,0,1-4.07,3.44,18.68,18.68,0,0,1-6.9,1.1Zm1.2-3.71a8.25,8.25,0,0,0,3.62-.69,4.39,4.39,0,0,0,2.12-2.19,9.56,9.56,0,0,0,.69-4,9.37,9.37,0,0,0-.7-4,4.49,4.49,0,0,0-2.12-2.22,8.17,8.17,0,0,0-3.59-.7,13.6,13.6,0,0,0-2.32.21v13.46A20.62,20.62,0,0,0,200.2,102.91Z"/><path id="_240144048" data-name=" 240144048" class="cls-1" d="M17.26,53.26h5.67V74.41H18.57v-15l-5.19,11.9H9.55L4.35,59.84V74.41H0V53.26H5.68l5.86,13.31Z"/><path id="_240143496" data-name=" 240143496" class="cls-1" d="M26.78,53.26h4.67V74.41H26.78Z"/><path id="_240142968" data-name=" 240142968" class="cls-1" d="M49.1,53.26h4.4V74.41H48.81L39.62,60.25V74.41H35.24V53.26h4.68L49.1,67.41Z"/><path id="_240142896" data-name=" 240142896" class="cls-1" d="M57.29,53.26h4.65V74.41H57.29Z"/><path id="_240143088" data-name=" 240143088" class="cls-1" d="M68,74.45a18.08,18.08,0,0,1-2.84-.68V70a19.76,19.76,0,0,0,2.91.69,20.07,20.07,0,0,0,3,.25,5.24,5.24,0,0,0,3-.64,2.08,2.08,0,0,0,.91-1.83,2,2,0,0,0-.28-1.12,2.45,2.45,0,0,0-.93-.79,10.83,10.83,0,0,0-1.84-.64l-1.59-.42A8.31,8.31,0,0,1,66,63.31a5.48,5.48,0,0,1-1.4-3.89,5.62,5.62,0,0,1,2.23-4.75Q69.08,53,73.45,53a21.3,21.3,0,0,1,2.68.17,14.39,14.39,0,0,1,2.33.45v3.78a13.5,13.5,0,0,0-2.27-.49,18.94,18.94,0,0,0-2.49-.17,6.71,6.71,0,0,0-3.4.64,2,2,0,0,0-1,1.8,2.12,2.12,0,0,0,.25,1.08,1.87,1.87,0,0,0,.83.74A7.19,7.19,0,0,0,72,61.6l1.6.4a9.33,9.33,0,0,1,4.53,2.24,5.34,5.34,0,0,1,1.46,3.92,6,6,0,0,1-1,3.49,6.23,6.23,0,0,1-2.92,2.24,12,12,0,0,1-4.56.79A22.42,22.42,0,0,1,68,74.45Z"/><path id="_240142800" data-name=" 240142800" class="cls-1" d="M86.25,74.41V57.13H79.57V53.26h18v3.87H90.91V74.41Z"/><path id="_240143400" data-name=" 240143400" class="cls-1" d="M104.27,70.69h10.41v3.72h-15V53.26h14.87V57H104.27v4.77h8.8v3.71h-8.8Z"/><path id="_240143376" data-name=" 240143376" class="cls-1" d="M122.18,63.07a22.84,22.84,0,0,0,2.29.12,5.91,5.91,0,0,0,3.42-.8,3.61,3.61,0,0,0,0-5.15,5.35,5.35,0,0,0-3.26-.8,13,13,0,0,0-2.49.21Zm7.87,11.34-5.4-7.77h-.26c-.67,0-1.41,0-2.21-.07v7.84h-4.59V53.75a27.17,27.17,0,0,1,3.23-.54,29.88,29.88,0,0,1,3.38-.2c3.06,0,5.34.55,6.87,1.66a6,6,0,0,1,2.3,5.13,6.45,6.45,0,0,1-1.1,3.79,6.56,6.56,0,0,1-3.16,2.31l6,8.51Z"/><path id="_240142992" data-name=" 240142992" class="cls-1" d="M137.28,53.26h4.65V74.41h-4.65Z"/><path id="_240143136" data-name=" 240143136" class="cls-1" d="M158.85,69.25c.89-1.12,1.33-2.9,1.33-5.32s-.44-4.34-1.34-5.47A4.56,4.56,0,0,0,155,56.75a4.65,4.65,0,0,0-3.87,1.66c-.89,1.12-1.33,2.9-1.33,5.32s.44,4.35,1.32,5.49a4.67,4.67,0,0,0,3.88,1.7A4.62,4.62,0,0,0,158.85,69.25Zm-9.16,4.24a8.13,8.13,0,0,1-3.45-3.63,13.24,13.24,0,0,1-1.23-6,13.23,13.23,0,0,1,1.23-6,8.07,8.07,0,0,1,3.45-3.62A11,11,0,0,1,155,53a11.21,11.21,0,0,1,5.3,1.21,8,8,0,0,1,3.45,3.63,13.51,13.51,0,0,1,1.22,6,13.56,13.56,0,0,1-1.22,6,8.22,8.22,0,0,1-3.46,3.63,11.07,11.07,0,0,1-5.29,1.2A11.22,11.22,0,0,1,149.69,73.49Z"/><path id="_240143304" data-name=" 240143304" class="cls-1" d="M185.94,70.13a4.56,4.56,0,0,0,2.15-2.24,9.86,9.86,0,0,0,.71-4.06,9.4,9.4,0,0,0-.73-4,4.47,4.47,0,0,0-2.16-2.27,8.09,8.09,0,0,0-3.65-.72,14.27,14.27,0,0,0-2.37.21V70.74c.62.06,1.39.1,2.35.1A8.47,8.47,0,0,0,185.94,70.13Zm-10.7,4.15V53.75a25.83,25.83,0,0,1,3.26-.53,31.57,31.57,0,0,1,3.44-.19c3.89,0,6.79.89,8.73,2.66s2.92,4.48,2.92,8.14A12.11,12.11,0,0,1,192.2,70a8.09,8.09,0,0,1-4.15,3.5,18.64,18.64,0,0,1-7,1.13A46.44,46.44,0,0,1,175.24,74.28Z"/><path id="_240143112" data-name=" 240143112" class="cls-1" d="M201.27,70.69h10.42v3.72h-15V53.26h14.88V57H201.27v4.77h8.82v3.71h-8.82Z"/><path id="_240143208" data-name=" 240143208" class="cls-1" d="M381.93,60.76v6.79a22.2,22.2,0,0,1-3.57.31c-2.74,0-4.79-.58-6.14-1.78s-2-3-2.05-5.47a7,7,0,0,1,2.08-5.51c1.39-1.24,3.4-1.85,6.05-1.85a14.74,14.74,0,0,1,3.23.35v2.59a12.72,12.72,0,0,0-2.95-.34,7.27,7.27,0,0,0-2.9.49A3.22,3.22,0,0,0,374,57.87a6,6,0,0,0-.55,2.78,4.74,4.74,0,0,0,1.14,3.52,4.85,4.85,0,0,0,3.51,1.11c.2,0,.49,0,.88,0v-4.5Z"/><path id="_240142056" data-name=" 240142056" class="cls-1" d="M393.32,64.22a5.75,5.75,0,0,0,.9-3.59,6,6,0,0,0-.9-3.69,3.55,3.55,0,0,0-5.22,0,5.75,5.75,0,0,0-.91,3.59,6.07,6.07,0,0,0,.9,3.7,3.57,3.57,0,0,0,5.23,0Zm-6.2,2.86a5.47,5.47,0,0,1-2.34-2.44,10.39,10.39,0,0,1,0-8.14,5.43,5.43,0,0,1,2.34-2.44,8.36,8.36,0,0,1,7.18,0,5.48,5.48,0,0,1,2.33,2.45,10.44,10.44,0,0,1,0,8.11,5.36,5.36,0,0,1-2.35,2.45,7.3,7.3,0,0,1-3.57.82A7.49,7.49,0,0,1,387.12,67.08Z"/><path id="_240141960" data-name=" 240141960" class="cls-1" d="M406.37,65.36a1.87,1.87,0,0,0,1-.66,1.89,1.89,0,0,0,.3-1.13,1.76,1.76,0,0,0-.64-1.51,3.58,3.58,0,0,0-2.1-.47h-2.34v3.9a15.15,15.15,0,0,0,1.78.08,7.34,7.34,0,0,0,2-.21Zm-3.75-9.64v3.51h2a3.35,3.35,0,0,0,2-.45,1.57,1.57,0,0,0,.61-1.38,1.8,1.8,0,0,0-.28-1.06,1.47,1.47,0,0,0-.86-.6,5.43,5.43,0,0,0-1.61-.2A10.19,10.19,0,0,0,402.62,55.72Zm7.3,5.74a3.4,3.4,0,0,1,.71,2.24,3.66,3.66,0,0,1-.71,2.29,4.3,4.3,0,0,1-2.26,1.39,13.87,13.87,0,0,1-4.09.48,34,34,0,0,1-4-.27V53.75a24.22,24.22,0,0,1,4.58-.49,8.57,8.57,0,0,1,4.64,1,3.71,3.71,0,0,1,.87,5,3,3,0,0,1-1.69,1.13,3.37,3.37,0,0,1,2,1.13Z"/><path id="_240142632" data-name=" 240142632" class="cls-1" d="M412.42,53.43h3.15V67.7h-3.15Z"/><path id="_240142320" data-name=" 240142320" class="cls-1" d="M421.25,65.2h7.05v2.51H418.14V53.43H428.2v2.51h-6.95v3.21h6v2.5h-6Z"/><path id="_240142560" data-name=" 240142560" class="cls-1" d="M433.36,60.05a14.36,14.36,0,0,0,1.57.08,4,4,0,0,0,2.3-.53,2.44,2.44,0,0,0,0-3.48,3.58,3.58,0,0,0-2.21-.54,9.75,9.75,0,0,0-1.7.14Zm5.33,7.66L435,62.46h-.17c-.46,0-.95,0-1.51,0v5.29h-3.1v-14c.69-.15,1.42-.26,2.19-.35a19.82,19.82,0,0,1,2.29-.14,7.89,7.89,0,0,1,4.65,1.12,4,4,0,0,1,1.54,3.46,4.3,4.3,0,0,1-.73,2.56A4.52,4.52,0,0,1,438.06,62l4.06,5.75Z"/><path id="_240142608" data-name=" 240142608" class="cls-1" d="M453,53.43h3V67.7h-3.16l-6.22-9.55V67.7h-3V53.43h3.17L453,63Z"/><path id="_240142104" data-name=" 240142104" class="cls-1" d="M467.38,64.22a5.75,5.75,0,0,0,.9-3.59,6.06,6.06,0,0,0-.9-3.69,3.55,3.55,0,0,0-5.22,0,5.75,5.75,0,0,0-.91,3.59,6,6,0,0,0,.9,3.7,3.57,3.57,0,0,0,5.23,0Zm-6.2,2.86a5.47,5.47,0,0,1-2.34-2.44,9,9,0,0,1-.82-4.07,9,9,0,0,1,.82-4.07,5.43,5.43,0,0,1,2.34-2.44,8.36,8.36,0,0,1,7.18,0,5.5,5.5,0,0,1,2.34,2.45,10.44,10.44,0,0,1,0,8.11,5.56,5.56,0,0,1-2.35,2.45,7.34,7.34,0,0,1-3.58.82,7.52,7.52,0,0,1-3.59-.81Z"/><path id="_240142464" data-name=" 240142464" class="cls-1" d="M485.7,64.82a3.11,3.11,0,0,0,1.47-1.52,6.75,6.75,0,0,0,.47-2.74,6.63,6.63,0,0,0-.48-2.74,3.06,3.06,0,0,0-1.47-1.52,5.43,5.43,0,0,0-2.47-.49,9,9,0,0,0-1.6.15v9.26a13.72,13.72,0,0,0,1.58.07A5.66,5.66,0,0,0,485.7,64.82Zm-7.23,2.8V53.75a20.34,20.34,0,0,1,2.2-.35c.81-.08,1.58-.12,2.34-.12,2.62,0,4.59.59,5.89,1.79s2,3,2,5.5a8.1,8.1,0,0,1-.94,4.15,5.53,5.53,0,0,1-2.8,2.37,12.76,12.76,0,0,1-4.76.76,35,35,0,0,1-3.92-.23Z"/><path id="_240141984" data-name=" 240141984" class="cls-1" d="M496.08,65.2h7v2.51H493V53.43H503v2.51h-6.95v3.21h6v2.5h-6Z"/><path id="_240142392" data-name=" 240142392" class="cls-1" d="M510,67.7V53.43h3.14V65.09h6.58V67.7Z"/><path id="_240141360" data-name=" 240141360" class="cls-1" d="M524.93,61.4h3.77l-1.9-6.09Zm5.71,6.3-1.17-3.81h-5.31L523,67.7h-3.07l4.61-14.28h4.6l4.63,14.28Z"/><path id="_240141792" data-name=" 240141792" class="cls-1" d="M547,60.56a2.7,2.7,0,0,0,.75-2.13,2.79,2.79,0,0,0-.75-2.15,3.39,3.39,0,0,0-2.31-.67,10.14,10.14,0,0,0-1.46.11v5.4a9.49,9.49,0,0,0,1.4.09A3.5,3.5,0,0,0,547,60.56ZM540,53.68a23.16,23.16,0,0,1,4.33-.42,7.67,7.67,0,0,1,4.82,1.25,4.68,4.68,0,0,1,1.59,3.91,4.7,4.7,0,0,1-1.57,3.85,7.14,7.14,0,0,1-4.63,1.29l-1.39,0V67.7H540v-14Z"/><path id="_240141768" data-name=" 240141768" class="cls-1" d="M555.86,60.05a14.18,14.18,0,0,0,1.56.08,4,4,0,0,0,2.3-.53,2.44,2.44,0,0,0,0-3.48,3.58,3.58,0,0,0-2.21-.54,9.56,9.56,0,0,0-1.69.14v4.33Zm5.32,7.66-3.64-5.25h-.18c-.5,0-1,0-1.5,0v5.29h-3.1v-14c.68-.15,1.42-.26,2.19-.35a19.42,19.42,0,0,1,2.29-.14,7.88,7.88,0,0,1,4.64,1.12,4,4,0,0,1,1.55,3.46,4.3,4.3,0,0,1-.74,2.56A4.49,4.49,0,0,1,560.56,62l4.06,5.75Z"/><path id="_240141720" data-name=" 240141720" class="cls-1" d="M574.28,64.22a5.75,5.75,0,0,0,.9-3.59,6,6,0,0,0-.9-3.69,3.13,3.13,0,0,0-2.61-1.16,3.18,3.18,0,0,0-2.62,1.13,5.75,5.75,0,0,0-.9,3.59,6.07,6.07,0,0,0,.9,3.7,3.57,3.57,0,0,0,5.23,0Zm-6.2,2.86a5.47,5.47,0,0,1-2.34-2.44,10.51,10.51,0,0,1,0-8.14,5.48,5.48,0,0,1,2.34-2.44,8.34,8.34,0,0,1,7.17,0,5.4,5.4,0,0,1,2.34,2.45,10.32,10.32,0,0,1,0,8.11,5.49,5.49,0,0,1-2.34,2.45,7.39,7.39,0,0,1-3.58.82A7.49,7.49,0,0,1,568.08,67.08Z"/><path id="_240141744" data-name=" 240141744" class="cls-1" d="M589.59,53.43h3.07l-4.6,14.27h-4.65l-4.59-14.27h3.29l3.72,11.89Z"/><path id="_240141696" data-name=" 240141696" class="cls-1" d="M594,53.43h3.16V67.7H594Z"/><path id="_240141552" data-name=" 240141552" class="cls-1" d="M609.06,53.43h3V67.7h-3.17l-6.21-9.55V67.7h-3V53.43h3.18L609.06,63Z"/><path id="_240141624" data-name=" 240141624" class="cls-1" d="M616,66.12c-1.27-1.19-1.9-3-1.9-5.52a7.25,7.25,0,0,1,2-5.5,8,8,0,0,1,5.67-1.85,12.8,12.8,0,0,1,3.06.34v2.58a12.15,12.15,0,0,0-2.82-.33,5.86,5.86,0,0,0-2.57.49,3.1,3.1,0,0,0-1.5,1.51,6.36,6.36,0,0,0-.49,2.72,6.62,6.62,0,0,0,.48,2.75,3,3,0,0,0,1.48,1.51,5.63,5.63,0,0,0,2.5.47,10.17,10.17,0,0,0,2.92-.46v2.61a11.23,11.23,0,0,1-1.53.32,10.47,10.47,0,0,1-1.68.13A7.9,7.9,0,0,1,616,66.12Z"/><path id="_240141864" data-name=" 240141864" class="cls-1" d="M626.55,53.43h3.15V67.7h-3.15Z"/><path id="_240141840" data-name=" 240141840" class="cls-1" d="M636.14,61.4h3.77L638,55.31Zm5.72,6.3-1.18-3.81h-5.31L634.2,67.7h-3.08l4.62-14.28h4.6L645,67.7Z"/><path id="_240141600" data-name=" 240141600" class="cls-1" d="M658.48,64.82a3.08,3.08,0,0,0,1.46-1.52,6.56,6.56,0,0,0,.49-2.74,6.45,6.45,0,0,0-.5-2.74,3.08,3.08,0,0,0-1.46-1.52,5.46,5.46,0,0,0-2.47-.49,8.69,8.69,0,0,0-1.61.15v9.26a14,14,0,0,0,1.58.07,5.68,5.68,0,0,0,2.51-.47Zm-7.24,2.8V53.75a21.37,21.37,0,0,1,2.21-.35c.81-.08,1.58-.12,2.34-.12,2.62,0,4.58.59,5.9,1.79s2,3,2,5.5a8.2,8.2,0,0,1-.93,4.15,5.62,5.62,0,0,1-2.82,2.37,12.7,12.7,0,0,1-4.75.76A35,35,0,0,1,651.24,67.62Z"/><path id="_240140520" data-name=" 240140520" class="cls-1" d="M668.85,65.2h7v2.51H665.74V53.43H675.8v2.51h-6.95v3.21h6v2.5h-6Z"/><path id="_240140952" data-name=" 240140952" class="cls-1" d="M385.75,101.51a3.6,3.6,0,0,0,2.93-3.88,3.83,3.83,0,0,0-1.41-3.32,7.91,7.91,0,0,0-4.6-1h-5.12v8.56c1.06.1,2.35.17,3.89.17A15.32,15.32,0,0,0,385.75,101.51Zm-8.2-21.09v7.71H382a7.49,7.49,0,0,0,4.42-1,3.51,3.51,0,0,0,1.32-3,4.19,4.19,0,0,0-.59-2.33,3.66,3.66,0,0,0-1.91-1.31,12,12,0,0,0-3.51-.41A22.23,22.23,0,0,0,377.55,80.42Zm16,12.57a7.46,7.46,0,0,1,1.55,4.91,8,8,0,0,1-1.54,5,9.34,9.34,0,0,1-4.94,3.06,31.33,31.33,0,0,1-9,1c-1.32,0-2.8-.05-4.41-.16s-2.95-.24-4.41-.44V76.11A49.15,49.15,0,0,1,380.85,75q6.93,0,10.14,2.13a7.37,7.37,0,0,1,3.21,6.56A7.2,7.2,0,0,1,392.89,88a6.58,6.58,0,0,1-3.69,2.49A7.35,7.35,0,0,1,393.52,93Z"/><path id="_240140808" data-name=" 240140808" class="cls-1" d="M402.06,103.77c-2.14-2.18-3.2-5.55-3.2-10.08V75.41h6.91v19q0,3.67,1.55,5.37a7.58,7.58,0,0,0,9.52,0c1-1.13,1.54-2.93,1.54-5.37v-19h6.8V93.69c0,4.53-1.06,7.9-3.18,10.08s-5.42,3.29-9.92,3.29-7.88-1.09-10-3.29Z"/><path id="_240140448" data-name=" 240140448" class="cls-1" d="M437.47,101.17h15.42v5.49H430.65V75.41h22V80.9H437.47v7h13.06v5.49H437.47Z"/><path id="_240140616" data-name=" 240140616" class="cls-1" d="M477.75,75.42h6.5v31.24h-6.94L463.7,85.74v20.92h-6.49V75.41h6.94l13.6,20.92Z"/><path id="_240140424" data-name=" 240140424" class="cls-1" d="M509.32,99c1.31-1.65,2-4.26,2-7.85s-.66-6.43-2-8.1A7.78,7.78,0,0,0,497.88,83q-2,2.48-2,7.86c0,3.73.65,6.43,2,8.11a7.83,7.83,0,0,0,11.45,0Zm-13.58,6.25a11.89,11.89,0,0,1-5.12-5.34A19.77,19.77,0,0,1,488.81,91a19.82,19.82,0,0,1,1.81-8.92,12.06,12.06,0,0,1,5.12-5.35,18.43,18.43,0,0,1,15.72,0,12,12,0,0,1,5.11,5.36,19.7,19.7,0,0,1,1.8,8.88,19.6,19.6,0,0,1-1.81,8.9,12.09,12.09,0,0,1-5.12,5.36,18.29,18.29,0,0,1-15.7,0Z"/><path id="_240141048" data-name=" 240141048" class="cls-1" d="M526.23,106.71a26.39,26.39,0,0,1-4.2-1v-5.57a31,31,0,0,0,8.74,1.37,8,8,0,0,0,4.38-.92,3.06,3.06,0,0,0,1.35-2.71,3,3,0,0,0-.41-1.65,3.3,3.3,0,0,0-1.39-1.17,14.65,14.65,0,0,0-2.72-1l-2.35-.61a12.5,12.5,0,0,1-6.26-3.24,8,8,0,0,1-2.07-5.76,8.26,8.26,0,0,1,3.29-7q3.3-2.47,9.76-2.47a31.79,31.79,0,0,1,4,.24,25.08,25.08,0,0,1,3.46.66v5.59a20.38,20.38,0,0,0-3.35-.71,27,27,0,0,0-3.7-.26,10.11,10.11,0,0,0-5,.94,3,3,0,0,0-1.52,2.68,3.18,3.18,0,0,0,.36,1.58,3,3,0,0,0,1.22,1.1,11.94,11.94,0,0,0,2.39.89l2.37.58a13.92,13.92,0,0,1,6.72,3.34,7.88,7.88,0,0,1,2.15,5.79,8.8,8.8,0,0,1-1.5,5.14,9.37,9.37,0,0,1-4.33,3.33,17.84,17.84,0,0,1-6.76,1.15A30.34,30.34,0,0,1,526.23,106.71Z"/><path id="_240140904" data-name=" 240140904" class="cls-1" d="M566.46,92.86h8.25l-4.13-13.33-4.12,13.33ZM579,106.66l-2.58-8.34H564.79l-2.59,8.34h-6.72l10.11-31.25h10.07l10.11,31.25Z"/><path id="_240140832" data-name=" 240140832" class="cls-1" d="M588.89,75.42h6.89v31.24h-6.89Z"/><path id="_240140688" data-name=" 240140688" class="cls-1" d="M608.21,89.9a33.68,33.68,0,0,0,3.4.19,8.58,8.58,0,0,0,5.06-1.19,4.39,4.39,0,0,0,1.62-3.81,4.48,4.48,0,0,0-1.55-3.8,7.89,7.89,0,0,0-4.83-1.19,20.93,20.93,0,0,0-3.7.32V89.9Zm11.65,16.76-8-11.47h-.37c-1,0-2.09,0-3.28-.1v11.57h-6.8V76.11c1.58-.34,3.18-.6,4.78-.78a44.33,44.33,0,0,1,5-.29q6.79,0,10.17,2.45c2.26,1.64,3.39,4.17,3.39,7.57a9.45,9.45,0,0,1-1.62,5.62,9.69,9.69,0,0,1-4.66,3.42l8.89,12.56Z"/><path id="_240140064" data-name=" 240140064" class="cls-1" d="M637.38,101.17h15.43v5.49H630.57V75.41h22V80.9H637.38v7h13.06v5.49H637.38Z"/><path id="_240139992" data-name=" 240139992" class="cls-1" d="M660.41,106.71a26.39,26.39,0,0,1-4.2-1v-5.57a31,31,0,0,0,8.74,1.37,8.07,8.07,0,0,0,4.38-.92,3.06,3.06,0,0,0,1.36-2.71,3,3,0,0,0-.42-1.65,3.18,3.18,0,0,0-1.39-1.17,14.4,14.4,0,0,0-2.72-1l-2.35-.61a12.58,12.58,0,0,1-6.27-3.24,8.07,8.07,0,0,1-2.07-5.76,8.27,8.27,0,0,1,3.3-7q3.3-2.47,9.75-2.47a32,32,0,0,1,4,.24,25.08,25.08,0,0,1,3.46.66v5.59a20.28,20.28,0,0,0-3.36-.71,26.71,26.71,0,0,0-3.69-.26,10.11,10.11,0,0,0-5,.94,3,3,0,0,0-1.53,2.68,3.18,3.18,0,0,0,.37,1.58,3,3,0,0,0,1.21,1.1,12.31,12.31,0,0,0,2.4.89l2.37.58a13.92,13.92,0,0,1,6.72,3.34,8,8,0,0,1,2.15,5.79,8.8,8.8,0,0,1-1.5,5.14,9.42,9.42,0,0,1-4.33,3.33,17.84,17.84,0,0,1-6.76,1.15,30.24,30.24,0,0,1-4.56-.35Z"/><path id="_240140376" data-name=" 240140376" class="cls-1" d="M270.38,30.07v-5.4H269v5.4Z"/><path id="_240140256" data-name=" 240140256" class="cls-1" d="M273.75,30.07V24.68H272.4v5.39Z"/><path id="_240139824" data-name=" 240139824" class="cls-1" d="M266,28.68h-3.67l.24-2.76v0a.48.48,0,0,1,.46-.48h3v3.28Zm-2.68,5a1,1,0,1,1,0,2.09,1,1,0,0,1,0-2.09Zm9.43-11.56h-6a.74.74,0,0,0-.73.74v1.05h-3a1.91,1.91,0,0,0-1.92,1.89l-.27,3.26-.71.7a2.13,2.13,0,0,0-.5,1.41v3.56a.71.71,0,0,0,.71.73h.58a2.51,2.51,0,1,0,.17-1.87V32.53h.29a.74.74,0,1,0,0-1.47h-.28a.48.48,0,0,1,.07-.23l.67-.68H266v4.61a.74.74,0,0,0,.74.73h.89a22.87,22.87,0,0,1,2.31-1.44l0,0h-2.51v-1.5h5.84a30.8,30.8,0,0,1,5.48-1.47H267.47V23.62h7.63c-.75-.49-1.54-1-2.35-1.47Z"/><path id="_240139920" data-name=" 240139920" class="cls-1" d="M276.65,24.68h-.88v5.39h1.36V25l-.48-.34Z"/><path id="_240140400" data-name=" 240140400" class="cls-1" d="M279.17,26.51v3.56h1.35V27.53l-1.35-1Z"/><path id="_240140304" data-name=" 240140304" class="cls-1" d="M243.06,32.4,246,34.57l-2.92,2.77Zm0-8.17,2.88,2.35-2.88,2.34Zm0-6.31h2.53l-2.53,2.49V17.93Zm3.38,2.52v4.35l-3-2.41,3-2.9Zm0,12.36-2.85-2.12,2.85-2.3V32.8Zm0,9.52-3-3,3-2.85Zm1.7-20.21,2.41,1.75-2.41,1.3V22.11Zm6.83-.9c-.24.2-.48.42-.7.64L252.21,23l-2.35-1.71Zm.74,16.58.08.1-1,.87-.09-.1a3.56,3.56,0,0,1-.92-2A3.5,3.5,0,0,1,255.71,37.79ZM243.06,47.4v-6l3.63,3.6,1.44-.61V27.09l3.75-2a10.72,10.72,0,0,0-.94,2.63,12.76,12.76,0,0,0,1.56,8.91l0,0a4.78,4.78,0,0,0,1.25,2.94l.51.57a.6.6,0,0,0,.9,0l.48-.44.86,1a.61.61,0,0,0,.9,0,1.3,1.3,0,0,1,1.83.08,1.3,1.3,0,0,1-1.93,1.74h0a.66.66,0,0,0-1,.88,2.6,2.6,0,0,0,3.87-3.48,2.56,2.56,0,0,0-3.09-.53l-.49-.54.49-.42a.62.62,0,0,0,.06-.92l-.51-.57a4.81,4.81,0,0,0-2.41-1.45l.07,0c-.2-.32-4.61-7.49,2.85-13.22l2.14-1.16-.41-1.59-10.78.12V17.06l-.85-.84h-5.08l-.85.84V48.54l1-.75.66-.39Z"/><path id="_240139800" data-name=" 240139800" class="cls-1" d="M252.37,66.28a1.7,1.7,0,1,1,3-.81,1.76,1.76,0,0,1-.66,1.13,1.68,1.68,0,0,1-1.24.33h0A1.69,1.69,0,0,1,252.37,66.28Zm1.35,3.41a4.43,4.43,0,1,0-4.4-5v0a4.45,4.45,0,0,0,3.85,5A5.09,5.09,0,0,0,253.72,69.69Z"/><path id="_240140208" data-name=" 240140208" class="cls-1" d="M354.77,67.79a5,5,0,0,0-.37.42c-.36.42-1.2,1.21-1.66,1.62l-.21.21a4.61,4.61,0,0,1-1.57.83,4.19,4.19,0,0,0-2.77,3.25,6.58,6.58,0,0,1-.26-2.19,9.7,9.7,0,0,1,1.7-3.88l.58-1a.76.76,0,0,0,0-.84.78.78,0,0,0-.75-.36,11.43,11.43,0,0,0-4.83,1.82,6.89,6.89,0,0,1,1.68-2.54c.09-.12.19-.24.29-.35a.81.81,0,0,0-.06-1.13.8.8,0,0,0-.92-.1c-1.08.57-2.16,1.12-3.26,1.65-.91.43-1.87.8-2.77,1.14a11.51,11.51,0,0,0-2,1,4.31,4.31,0,0,1,.58-1,15,15,0,0,1,1.53-1.57l.81-.76a17.83,17.83,0,0,0,2.85-3.6.81.81,0,0,0-.27-1.11l-.16-.07a6.84,6.84,0,0,0-2.54-.33,1.92,1.92,0,0,0-1.07.46l-.07.05-.07,0s0-.11,0-.17a2.8,2.8,0,0,1,.95-1.37.93.93,0,0,0,.14-.14.9.9,0,0,0,.15-.93.88.88,0,0,0-.77-.53.76.76,0,0,0-.3,0,4,4,0,0,1-1.94.07,11.35,11.35,0,0,0-4-.09l.19-.17a7.17,7.17,0,0,1,3.27-1.6,11.61,11.61,0,0,0,2.32-1c.26-.14.5-.26.76-.38a1,1,0,0,0,.66-.92,1.06,1.06,0,0,0-.67-1,4.09,4.09,0,0,0-2.23-.35,2.85,2.85,0,0,0,1-.91c.22-.33.67-.49,1.37-.71l.09,0a.83.83,0,0,0,.56-.65.81.81,0,0,0-.37-.79c-.13-.08-.25-.17-.37-.23l-.66-.44a5.89,5.89,0,0,1-2.08-2.38,3,3,0,0,0-1.54-1.43,9.58,9.58,0,0,0-1.47-.54,5.34,5.34,0,0,1,3.05.23,23.45,23.45,0,0,1,3.83,1.88h0a1.11,1.11,0,0,0,.9.25.81.81,0,0,0,.64-.68,5.88,5.88,0,0,0-1.55-4.81,12.3,12.3,0,0,1,3.3,1.61.83.83,0,0,0,1-.11.8.8,0,0,0,.1-1,3.31,3.31,0,0,1-.5-.95c-.05-.14-.11-.32-.21-.58a2.61,2.61,0,0,1-.08-1.14c0-.21,0-.4,0-.63a5.73,5.73,0,0,1,.7-2.3l-1.27-1a7.79,7.79,0,0,0-1,3.34c0,.17,0,.34,0,.52a4.81,4.81,0,0,0,0,1.36,9.83,9.83,0,0,0-4.32-1,.82.82,0,0,0-.75.52.77.77,0,0,0,.22.87c1.38,1.25,2.48,2.36,2.74,3.87a26,26,0,0,0-3.22-1.48c-2.57-1-4.88-.22-7,.74a.8.8,0,0,0-.47.74.83.83,0,0,0,.48.73,2.69,2.69,0,0,0,.74.18,12.09,12.09,0,0,1,3.42.85,1.45,1.45,0,0,1,.76.65,7.33,7.33,0,0,0,2.44,2.89,2.51,2.51,0,0,0-.84.78c-.28.42-.63.55-1.32.51a.92.92,0,0,0-1.06.37A1,1,0,0,0,335,51.3h0a2.66,2.66,0,0,0,2.58,1.35,7.18,7.18,0,0,1-1.19.47,8.79,8.79,0,0,0-4,2,1.58,1.58,0,0,1-1,.4h-.07a1,1,0,0,0-1.21.65,1.43,1.43,0,0,0,.47,1.46,1.74,1.74,0,0,0,1.18.58,4.41,4.41,0,0,0,1.34-.1,10,10,0,0,1,3.94,0,8.43,8.43,0,0,0,.86.11,6.13,6.13,0,0,0-.29.75c-.21.71-.48,1-1,1.19a1,1,0,0,0-.75.79,1,1,0,0,0,.47,1,1.76,1.76,0,0,0,1.88.06,8.1,8.1,0,0,0,1.5-.94l.34-.24.08-.06.24-.15a6.58,6.58,0,0,1,.89,0,18.32,18.32,0,0,1-2.77,3.07,16.78,16.78,0,0,0-1.7,1.76,5.68,5.68,0,0,0-1.24,3.57.76.76,0,0,0,.3.61.79.79,0,0,0,.64.18,2,2,0,0,0,.78-.35l.15-.1a12.8,12.8,0,0,1,2.62-1.5c.95-.35,1.95-.74,2.91-1.19l.3-.15a4.74,4.74,0,0,0-.38,2.83.8.8,0,0,0,1.25.53,15.34,15.34,0,0,1,3.65-2,9.64,9.64,0,0,0-1.5,3.85c-.23,1.84.92,5.26,1.81,6a.79.79,0,0,0,.83.13.81.81,0,0,0,.49-.69,24.09,24.09,0,0,1,.24-2.43,2.68,2.68,0,0,1,1.81-2.4,5.87,5.87,0,0,0,2.09-1.16l.22-.19c.3-.27.65-.6,1-.93l.43-.43a8.52,8.52,0,0,0-.46-1.87Z"/><path id="_240140136" data-name=" 240140136" class="cls-1" d="M285.79,8.08h-1.74V9.82h1.74Z"/><path id="_240138984" data-name=" 240138984" class="cls-1" d="M292.31,8.08h-1.74V9.82h1.74Z"/><path id="_240139272" data-name=" 240139272" class="cls-1" d="M282.16,5.84,287.42,2V5.44a.72.72,0,0,0,.28.56l0,0V6a.66.66,0,0,0,.8,0l.26-.19h0L294.06,2V5.44a.69.69,0,0,0,.28.56l0,0,0,0a.67.67,0,0,0,.81,0l.26-.19h0L300.7,2V3.82h1.37V.71a.76.76,0,0,0-.29-.56h0v0a.69.69,0,0,0-.8,0l-.26.19h0l-5.29,3.83V.71a.7.7,0,0,0-.29-.56h0v0a.71.71,0,0,0-.81,0l-.26.19h0l-5.29,3.83V.71a.69.69,0,0,0-.28-.56h0v0a.69.69,0,0,0-.8,0l-6.64,4.8a.69.69,0,0,0-.28.56v7.69c.46.31.92.63,1.37,1V5.84Z"/><path id="_240139248" data-name=" 240139248" class="cls-1" d="M275.79,18l.76.43.87-1.5-.75-.44c-.79-.45-1.58-.87-2.37-1.25l-.78-.39-.76,1.58.78.38C274.31,17.15,275.06,17.55,275.79,18Z"/><path id="_240139632" data-name=" 240139632" class="cls-1" d="M307.39,31.1l.85-.16-.33-1.72-.85.17a23,23,0,0,1-2.49.34l-.86.07.13,1.74.87-.07A24.05,24.05,0,0,0,307.39,31.1Z"/><path id="_240139224" data-name=" 240139224" class="cls-1" d="M287.87,26.43l1-1.45-2-1.38L286,23l-.71-.51-1,1.42.71.5c.5.36.83.59.84.61l2,1.38Z"/><path id="_240139512" data-name=" 240139512" class="cls-1" d="M280.26,21l1.18.88.71.51,1-1.4-.7-.52-1.15-.85c-.31-.24-.62-.48-.94-.71l-.7-.51-1,1.4.7.51.91.68Z"/><path id="_240139104" data-name=" 240139104" class="cls-1" d="M301.09,31.56l.15-1.74-.87-.07a18.7,18.7,0,0,1-2.45-.41l-.84-.21-.41,1.7.85.21a20.76,20.76,0,0,0,2.7.44Z"/><path id="_240139608" data-name=" 240139608" class="cls-1" d="M294.06,29.91l.7-1.58L294,28c-.77-.34-1.52-.72-2.26-1.13l-.76-.43-.85,1.52.77.42c.77.44,1.58.84,2.4,1.21Z"/><path id="_240139416" data-name=" 240139416" class="cls-1" d="M344.12,54.5c1.26,7,8,10.92,8.48,11.17a17.6,17.6,0,0,0,1.85,1,11.36,11.36,0,0,1-1.27-2.9c-1.38-.88-6.18-4.29-7.14-9.58-.63-3.52.54-7.24,3.5-11a8.6,8.6,0,0,0-.18-2.77c-.19.18-.38.37-.55.56C344.89,45.52,343.32,50.1,344.12,54.5Z"/><path id="_240139128" data-name=" 240139128" class="cls-1" d="M338.09,98.34l-.35-.08a43.56,43.56,0,0,1-2.63-3.79c-1.23-1.86-2.58-3.94-3.75-5.41a3.6,3.6,0,0,0,1.13-3.33s-.36-3.51-1.85-3.7a1,1,0,0,0-1.12.73v.06a5.52,5.52,0,0,1-1.6,2.68,3.41,3.41,0,0,0-.81-.29,3.85,3.85,0,0,0-.43-4.2h0a.92.92,0,0,0-.84-.5.89.89,0,0,0-.77.48c-.1.19-.17.39-.25.57a3.42,3.42,0,0,1-2.09,2.13,3.82,3.82,0,0,0-2.29,3,6.42,6.42,0,0,0-1.57-.62,3.36,3.36,0,0,0-2.72.62,2,2,0,0,0-.9,1.42,2.69,2.69,0,0,0,1.15,2c-.78.14-1.54.25-2.28.35a10.54,10.54,0,0,1-1.44,1.93,36.94,36.94,0,0,0,6.1-1,.9.9,0,0,0,.67-.73.87.87,0,0,0-.43-.9,7.38,7.38,0,0,1-1.94-1.54,1.64,1.64,0,0,1,1.4-.42,4.44,4.44,0,0,1,2.3,1.43l0,.06a.9.9,0,1,0,1.63-.75c-.87-2.3.58-3,1.06-3.24a6,6,0,0,0,2.23-1.71,3.7,3.7,0,0,1-1.39,2.27.87.87,0,0,0-.16,1.23.89.89,0,0,0,1.24.18,1.68,1.68,0,0,1,1.83-.12,1,1,0,0,0,1.07.16A5,5,0,0,0,330.56,85a4.58,4.58,0,0,1,.07,2.14c-.14.48-.38.61-.57.66a1.32,1.32,0,0,0-.88.8,1,1,0,0,0,.2.89,61.79,61.79,0,0,1,4.23,6c2,3,2.7,4.06,3.26,4.38a3.12,3.12,0,0,0,.84.25l.4.08a4.43,4.43,0,0,1-.52,2.49l-.1,0a.87.87,0,0,0-.5.34,17.43,17.43,0,0,1-1.51,1.82c-.57.49-1.28.21-2.36-.32a6.93,6.93,0,0,0-1.24-.49,14.41,14.41,0,0,0-6.63-.27,15.2,15.2,0,0,0-3.68,1.31c-1.46.73-2.26,4-2.54,5.42a.89.89,0,0,0,.69,1,.55.55,0,0,0,.18,0,.9.9,0,0,0,.88-.71c.39-2,1.14-3.94,1.58-4.18a13.1,13.1,0,0,1,3.25-1.16,12.84,12.84,0,0,1,5.86.26,3.74,3.74,0,0,1,.88.38c1.11.52,2.78,1.33,4.27.07a15,15,0,0,0,1.61-1.89l.19,0a.88.88,0,0,0,.57-.44c.17-.31,1.65-3.1.51-4.84-.27-.41-.78-.53-1.41-.66Z"/><path id="_240138288" data-name=" 240138288" class="cls-1" d="M348.56,89.05a5.92,5.92,0,0,0-3.91-1.72,6.18,6.18,0,0,0-5.13-2.6,13.32,13.32,0,0,0-3.31-2.29,7.64,7.64,0,0,1,5.28-2c4.07,0,7.37,3,7.37,6.75A6,6,0,0,1,348.56,89.05Zm-7.07-10.22a9.14,9.14,0,0,0-7,3.1l-.06,0V82q-.29.33-.54.69l.33.78c2.17.31,4.42,2.62,4.44,2.66l.33.34.46-.14a3,3,0,0,1,1.72.26l-2.42,4.46-.95,0h-.57c-.45,0-.91,0-1.35,0s-1.05,0-1.57,0L336,93.2q1.63,0,3.27.06a32.5,32.5,0,0,1,8,1.56c.41-.67.89-1.25,1.31-1.84a33.88,33.88,0,0,0-8.05-1.79l2.06-3.81a2.64,2.64,0,0,1,.86,1l.23.78.75-.23c.75-.21,2.12.29,3.45,1.6v0l.06,0c.2.21.4.42.6.67l.67.15a7.86,7.86,0,0,0,1.26-4.27c0-4.59-4-8.32-8.95-8.32Z"/><path id="_240138120" data-name=" 240138120" class="cls-1" d="M317.79,101.81a1.85,1.85,0,0,1,.27-1.08.68.68,0,0,0,.06-.66,2.75,2.75,0,0,0-1.49-1.49,3.45,3.45,0,0,0-2.43-.11,2.33,2.33,0,0,0-1.43,1.16,6,6,0,0,0-.12,4.12h-.39a4.83,4.83,0,0,0-.08-1.47,1,1,0,0,0-.59-.73,2.81,2.81,0,0,0-3,.81c-.51.63.06,1.47.24,1.74a4.23,4.23,0,0,1,.25.42l.2.33-.57.38a7.26,7.26,0,0,1-.55-3.41v0a8.69,8.69,0,0,1,.21-1.12l0-.16s0,0,0-.05a6.21,6.21,0,0,1,1.94-3.1,6.39,6.39,0,0,1,3.16-1.25c1.83-.26,4.3,2.27,5.09,3.25a.73.73,0,0,0,.64.29,1.91,1.91,0,0,1,1.54.35h0a3.7,3.7,0,0,0-1.65.4A2.53,2.53,0,0,0,317.79,101.81Zm-8,1.28a1.86,1.86,0,0,1,.51-.25,1.7,1.7,0,0,1,.55,0,3.86,3.86,0,0,1-.05,1.23l-.36.14A3.55,3.55,0,0,1,309.8,103.09Zm3.13,6.76c-.2.08-.68,0-1.29-.52a9,9,0,0,1-2.34-2.81A4.14,4.14,0,0,1,313,105.2c.12.64.23,1.59.25,1.81v0A4.32,4.32,0,0,1,312.93,109.85Zm6.78-8.2a2.19,2.19,0,0,1,1.54-.19,1,1,0,0,0,1.06-.33,1,1,0,0,0,.16-1,2.88,2.88,0,0,0-1.06-1.33,3.2,3.2,0,0,0-2-.53c-1.54-1.78-3.49-3.16-4.79-3.39a4.23,4.23,0,0,0-1.33-.1,6.79,6.79,0,0,0-3.89,1.55,7.5,7.5,0,0,0-2.38,3.71,7.33,7.33,0,0,0-.33,1.68,8.65,8.65,0,0,0,.78,4.39l.35.76a11,11,0,0,0,2.92,3.63,3.37,3.37,0,0,0,2,.82,1.65,1.65,0,0,0,.66-.13c1.06-.42,1.5-2,1.23-4.21a22.94,22.94,0,0,0-.53-3,13.15,13.15,0,0,1-.35-1.63s-.28-2.16.79-2.51a1.84,1.84,0,0,1,2.09.54,3.86,3.86,0,0,0-.24.82,2.94,2.94,0,0,0,.78,2.57,1,1,0,0,0,1.13.26,1,1,0,0,0,.65-1,1.35,1.35,0,0,1,.7-1.38Z"/><path id="_240138816" data-name=" 240138816" class="cls-1" d="M311.86,107.17a.89.89,0,0,0-1.2.33.85.85,0,0,0-.08.66.86.86,0,0,0,.84.66.91.91,0,0,0,.76-.44.9.9,0,0,0,.09-.66A.94.94,0,0,0,311.86,107.17Z"/><path id="_240138768" data-name=" 240138768" class="cls-1" d="M297.65,16.09H293v1.73h4.69Z"/><path id="_240138648" data-name=" 240138648" class="cls-1" d="M293,20.74h4.69V19H293Z"/><path id="_240138192" data-name=" 240138192" class="cls-1" d="M306.34,8.25h-1.81a.24.24,0,0,0-.24.24h0v1.58h-1.58a.23.23,0,0,0-.24.24h0v1.81a.24.24,0,0,0,.24.24h1.58V14a.24.24,0,0,0,.24.24h1.81a.24.24,0,0,0,.24-.24V12.37h1.59a.23.23,0,0,0,.23-.24V10.31a.23.23,0,0,0-.22-.23h-1.6V8.5a.25.25,0,0,0-.23-.25Z"/><path id="_240138744" data-name=" 240138744" class="cls-1" d="M307.94,23.68V20h1V19h-7v1h1v4.61c.32,0,.66,0,1-.08V20h3v4l1-.27Z"/><path id="_240138312" data-name=" 240138312" class="cls-1" d="M298.82,5.45v7.78H291a.75.75,0,0,0-.74.75h0v6.25c.49.34,1,.66,1.49,1V14.73h7v9.5a12.35,12.35,0,0,0,1.5.25V6.2h10.24V22.12l1.5-1.08v-6.3h7v3l.32.22a1.77,1.77,0,0,1,1.18-.69V14a.76.76,0,0,0-.74-.76h-7.79V5.45a.76.76,0,0,0-.76-.75H299.57a.75.75,0,0,0-.75.75Z"/><path id="_240138624" data-name=" 240138624" class="cls-1" d="M304.71,75.31l-.11,5.59a4.24,4.24,0,0,1,.88.12,3.93,3.93,0,0,1,.85.32l2.56-5A4.25,4.25,0,0,0,304.71,75.31Z"/><path id="_240138528" data-name=" 240138528" class="cls-1" d="M303.32,81.09l-1.71-5.32A4.23,4.23,0,0,0,297.92,78l3.87,4A3.88,3.88,0,0,1,303.32,81.09Z"/><path id="_240138600" data-name=" 240138600" class="cls-1" d="M295,84.66l5.61.1a3.52,3.52,0,0,1,.11-.9,3.58,3.58,0,0,1,.31-.81l-5-2.56A4.24,4.24,0,0,0,295,84.66Z"/><path id="_240137520" data-name=" 240137520" class="cls-1" d="M297.66,91.46l4.07-3.91a3.91,3.91,0,0,1-.93-1.5l-5.34,1.71A4.23,4.23,0,0,0,297.66,91.46Z"/><path id="_240137400" data-name=" 240137400" class="cls-1" d="M300.19,93.34l0,0h0l.06.05h0l.07.06h0l.09.08,0,0,.12.09h0l.14.1s0,0,0,0l.15.1,0,0,.18.09h0l.19.1,0,0,.21.08,0,0,.23.08h0l.25.07h.06a1.1,1.1,0,0,0,.26.06h.06l.28,0h.63l.27,0h.08l.2,0h.09l.29-.07v-.14l.1-5.5a3.35,3.35,0,0,1-.89-.12,3.47,3.47,0,0,1-.81-.31L300.6,92.5l-.42.82h0Z"/><path id="_240137760" data-name=" 240137760" class="cls-1" d="M311.14,91.72l-3.91-4.06a3.82,3.82,0,0,1-1.5.89l1.71,5.37a4.22,4.22,0,0,0,3.7-2.2Z"/><path id="_240137568" data-name=" 240137568" class="cls-1" d="M314.07,85l-5.62-.11a3.88,3.88,0,0,1-.45,1.7l5,2.58A4.22,4.22,0,0,0,314.07,85Z"/><path id="_240137880" data-name=" 240137880" class="cls-1" d="M313.6,81.93a4.21,4.21,0,0,0-2.2-3.69l-4,3.88a4.14,4.14,0,0,1,.91,1.52Z"/><path id="_240137712" data-name=" 240137712" class="cls-1" d="M307.36,84.82a2.83,2.83,0,1,0-5.66,0h0a2.83,2.83,0,1,0,5.66,0Z"/><path id="_240138000" data-name=" 240138000" class="cls-1" d="M306.5,53.62h-1.73v1.75h1.73Z"/><path id="_240137592" data-name=" 240137592" class="cls-1" d="M306.5,56.54h-1.73v1.74h1.73Z"/><path id="_240137856" data-name=" 240137856" class="cls-1" d="M325.19,53.62h-1.75v1.75h1.75Z"/><path id="_240137928" data-name=" 240137928" class="cls-1" d="M325.19,56.54h-1.75v1.74h1.75Z"/><path id="_240136680" data-name=" 240136680" class="cls-1" d="M329,28.19h-1.74v1.74H329Z"/><path id="_240136752" data-name=" 240136752" class="cls-1" d="M316.82,24.46h1.75V22.72h-1.75Z"/><path id="_240136584" data-name=" 240136584" class="cls-1" d="M259.42,77.48c5.74,1.3,11.73,4.43,14.91,8l2-.69c-3.33-4.19-10-7.8-16.46-9.26a29.11,29.11,0,0,0-18.52,1.56v2.21C247,76.24,253.93,76,259.42,77.48Z"/><path id="_240137208" data-name=" 240137208" class="cls-1" d="M270.32,68.33a30.74,30.74,0,0,1,9.49-2.91c.79-.11,1.59-.19,2.39-.25h.22c.73,0,2.17,0,3.06-.06h1.92c-5,1.32-10.17,3.44-13.21,5.61A10,10,0,0,0,272.7,72a34.13,34.13,0,0,0-4.83-2.24C268.66,69.22,269.47,68.76,270.32,68.33Zm6.45-10a2.8,2.8,0,0,1-2.72-2.1h1.55a2.78,2.78,0,0,1,2.66,1.92v.18h-1.49Zm1.14-5.69a.89.89,0,0,1-.77.16h0a.91.91,0,0,1-.59-.51.94.94,0,0,1,.06-.8l.74-1.29a5.55,5.55,0,0,0,.95.25v1.5a.86.86,0,0,1-.35.7Zm-2.2-7.08a3.35,3.35,0,1,1,3.35,3.35,3.34,3.34,0,0,1-3.35-3.35Zm-.53,5.12a.88.88,0,0,1-1.39.19l0,0a.85.85,0,0,1-.25-.74.88.88,0,0,1,.44-.66l1.29-.75a4.16,4.16,0,0,0,.7.69Zm-2-2.62a.94.94,0,0,1-.8.05.87.87,0,0,1-.51-.58v0a.85.85,0,0,1,.16-.78.9.9,0,0,1,.71-.35h1.49a4.28,4.28,0,0,0,.25.95Zm-1.33-4.42,0,0a.88.88,0,0,1,1.31-.52l1.29.74a4.43,4.43,0,0,0-.25.95H272.7a.9.9,0,0,1-.71-.35.85.85,0,0,1-.16-.78Zm1.94-3.35,0,0a.9.9,0,0,1,1.39.19l.76,1.29a5.14,5.14,0,0,0-.7.7L274,41.63a.86.86,0,0,1-.34-1.19A.75.75,0,0,1,273.76,40.24Zm2.75-1.43a.91.91,0,0,1,.59-.51h0a.89.89,0,0,1,1.12.85v1.51a5.29,5.29,0,0,0-.95.24l-.74-1.29A.91.91,0,0,1,276.51,38.81Zm3.35.33a.86.86,0,0,1,.35-.69.91.91,0,0,1,.78-.16h0a.89.89,0,0,1,.62,1.09,1,1,0,0,1-.09.21l-.74,1.29a5.29,5.29,0,0,0-.95-.24Zm3.07,1.26a.88.88,0,0,1,.66-.43.85.85,0,0,1,.75.24l0,0a.85.85,0,0,1,.25.74.83.83,0,0,1-.43.65l-1.3.76a5.08,5.08,0,0,0-.69-.7l.74-1.29ZM285,43h0a.9.9,0,0,1,1.3.53v0a.87.87,0,0,1-.15.78.9.9,0,0,1-.71.35h-1.49a4.46,4.46,0,0,0-.26-.95L285,43Zm1.32,4.41v0A.91.91,0,0,1,285,48l-1.31-.76a4.3,4.3,0,0,0,.26-.95h1.49a.9.9,0,0,1,.71.35A.87.87,0,0,1,286.29,47.44Zm-1.93,3.35,0,0a.89.89,0,0,1-1.26,0,.62.62,0,0,1-.14-.18l-.74-1.3a4.5,4.5,0,0,0,.69-.69l1.3.75a.89.89,0,0,1,.31,1.23.7.7,0,0,1-.13.17Zm-2.75,1.43a.88.88,0,0,1-.59.52h0a.91.91,0,0,1-.78-.16.89.89,0,0,1-.35-.7v-1.5a5.11,5.11,0,0,0,.95-.25l.75,1.29A.91.91,0,0,1,281.61,52.22Zm1,4h1.55a2.79,2.79,0,0,1-2.71,2.11H280v-.36A2.81,2.81,0,0,1,282.59,56.17Zm5.62,5.72a15.23,15.23,0,0,0,1.12-2.1,11.24,11.24,0,0,0,.65-6.87,45,45,0,0,1,5.69-.09,11.18,11.18,0,0,0,.06,6.07,14.12,14.12,0,0,0,.8,2.06l.2.36a14.2,14.2,0,0,0,1.38,2.12c-.47.26-.94.53-1.39.82l-.14.09a34.12,34.12,0,0,0-4.89-1.07c-.88-.13-1.76-.23-2.65-.29l-1.59-.06C287.72,62.59,288,62.24,288.21,61.89ZM301,68.46A27.33,27.33,0,0,1,303.72,70c-6.27-.28-16.69,2.52-21.66,5.52-.5.3-.95.61-1.34.9l-.79.61c-.56-.5-1.15-1-1.77-1.48l.1-.08a12.32,12.32,0,0,1,1.51-1.06C284.33,71.63,295.06,68.23,301,68.46Zm-24.5,5.93c-.68-.48-1.38-1-2.09-1.39a11.48,11.48,0,0,1,1.36-1c4.17-2.77,12.24-5.46,17.89-6.11l.63.14c.88.22,1.75.47,2.6.74l.19.07c-6.2.58-14.54,3.46-18.84,6.28A11.64,11.64,0,0,0,277,74Zm45.67-44.91,6-4.31L330.73,27a.69.69,0,0,0,.72.05.71.71,0,0,0,.38-.62V25h.68V28a.72.72,0,0,0,.28.56l1.32.95v5.46a73.2,73.2,0,0,1-8.18-1.51c-1.18-.27-2.43-.56-3.72-.82ZM307.59,52.24l.07,7.69-.32.06c-1.27.28-2.43.6-3.43.92l-.07-8.65Zm7.35-5.42,5.6,3.55.08,9.12a29.05,29.05,0,0,0-2.94-.21V56.49a2.65,2.65,0,1,0-5.3,0l0,2.81h-.29c-.89.06-1.77.17-2.64.29l-.08-9.2Zm4.63-5.28v1l-3.75,0v-1Zm-4,17.75c-.71,0-1.43,0-2.15,0l0-2.77a1.59,1.59,0,1,1,3.18,0l0,2.77Zm10.51-7.15.06,8.43c-1.23-.34-2.48-.61-3.75-.83l-.07-7.58,3.76,0ZM262,74.09c6,1.36,13.24,5.92,16.35,9.83l1.94-.68,0-.08c-3-4-10-8.73-16.32-10.6.35-.21,1-.58,1.12-.69.28-.26.57-.5.87-.74,6.08,1.78,13.51,7.19,16.21,11.19a.21.21,0,0,0,0,.06l1.9-.66c-.1-.17-.21-.33-.31-.49a20.11,20.11,0,0,0-2.4-2.82c.67-.47,1.36-.93,2.05-1.37,4.63-2.69,16.95-6.42,23.17-4.81l.31.21a13.72,13.72,0,0,0,6.84,2.3l.43,0c.41,0,.81,0,1.2,0a13.23,13.23,0,0,0,3.75-.84l.32-.13a5.77,5.77,0,0,1,3.54-.23,4.43,4.43,0,0,1,1.53.86,1.09,1.09,0,0,1,.17.13l.63.5c2.07,1.56,4.34,3.12,7,3.39a16,16,0,0,0,5-.34l.83-.2a18.56,18.56,0,0,1,2.71-1,12,12,0,0,1,5.05.11,6.56,6.56,0,0,1-.78-2.29c-1.2,0-.07,0-1.39-.07a11.57,11.57,0,0,0-5.63.91l-.9.27a13.45,13.45,0,0,1-3.51.52h-.24a14.09,14.09,0,0,1-6.11-2.29c-.15-.09-.28-.2-.43-.3-.62-.47-1.24-1-1.91-1.45a5.6,5.6,0,0,0-1.14-.59,7.37,7.37,0,0,0-5.5.12,10.45,10.45,0,0,1-4.51.71c-3.09-.11-6.71-2.65-6.71-2.65a28.11,28.11,0,0,0-7.86-4.63l0,0A30,30,0,0,1,308.38,62a31.53,31.53,0,0,1,3.87-.51c.89-.06,4-.06,4-.06.89,0,1.77,0,2.66.06a30,30,0,0,1,15.56,5.41,5.27,5.27,0,0,1,1.23-2A28.16,28.16,0,0,0,328,61.11l-.07-9.88a.88.88,0,0,0-.26-.63.84.84,0,0,0-.63-.26l-4.66,0v-.49a.86.86,0,0,0-.41-.75l-6.09-3.86v-.93l4.65,0a.91.91,0,0,0,.9-.9h0l0-2.77a.88.88,0,0,0-.88-.89h0l-5.55,0a.91.91,0,0,0-.64.27.89.89,0,0,0-.25.63l0,4.6-6,3.93a.9.9,0,0,0-.41.76v.48l-4.64,0a.9.9,0,0,0-.9.9l.07,10.17c-.57.22-1.13.45-1.69.71l-.35.17a12.29,12.29,0,0,1-1.65-2.58,10,10,0,0,1-.73-2.07,8.8,8.8,0,0,1-.23-2.23,9.32,9.32,0,0,1,.34-2.28l.74-2.4c-.93-.09-1.87-.16-2.81-.2,0-.38,0-.76,0-1.14s.05-.85.1-1.27a6.7,6.7,0,0,1,.27-1.24,2.35,2.35,0,0,1,.11-.35l.06-.14.06-.15c.15-.27.31-.51.47-.76l.15-.21a1,1,0,0,0,.1-.13c.08-.12.19-.23.28-.35s.4-.42.61-.61a2.37,2.37,0,0,1,.29-.25l.11-.09a6.22,6.22,0,0,1,.76-.5l.3-.16.19-.09a9,9,0,0,1,1.45-.45,1.26,1.26,0,0,1,.28-.05h0a8,8,0,0,1,1.83,0,.61.61,0,0,0,.14,0h.06a10,10,0,0,1,1.93.52l.14,0-.11,0,.1,0,.44.23a5.88,5.88,0,0,0,.91.44c1.71.54,3.55-.1,5.24-.41l1-.17V41.64l-.74.14c-.7.13-1.39.26-2.08.42-.21,0-.41.09-.62.12l-.21,0-.13,0-.41,0a6,6,0,0,1-.85,0h-.23l-.3-.06-.24-.07h0l-.36-.2a8.56,8.56,0,0,0-1.19-.55,10.4,10.4,0,0,0-3.17-.59,8.15,8.15,0,0,0-6,2.35A7.91,7.91,0,0,0,294.3,47a15.14,15.14,0,0,0-.3,3.62c-.74,0-1.61,0-2.4.06a19.73,19.73,0,0,1,.87-5.55,8.07,8.07,0,0,1,.55-1.24,7.22,7.22,0,0,1,.66-1.06l.08-.1a9.35,9.35,0,0,1,.92-1l.26-.22.13-.11,0,0,.56-.38a10.14,10.14,0,0,1,1.2-.67l.28-.12.19-.08.69-.23a21.38,21.38,0,0,1,2.75-.6,5.86,5.86,0,0,0,2.85-1.16c.75-.59,1.27-1.41,2-2,.17-.14.34-.26.51-.38l.66-.39q.35-.18.69-.33l.12-.06h0s0,0,0,0l.4-.16c.87-.32,1.75-.57,2.64-.81l.29-.06a19.88,19.88,0,0,1,4.87-.4,51.34,51.34,0,0,1,9.78,1.62,56.4,56.4,0,0,0,8.84,1.59l.84,0a13.63,13.63,0,0,0,8.69-3.2l-1.39-1.12a12.1,12.1,0,0,1-7.14,2.62V29.13a.67.67,0,0,0-.28-.55l-1.32-1V24.33a.69.69,0,0,0-.68-.69h-2.07a.69.69,0,0,0-.68.69v.77l-1.89-1.34a.69.69,0,0,0-.8,0l-2.59,1.88v-1.8a.66.66,0,0,0-.29-.55l-1.32-1V19a.68.68,0,0,0-.68-.68h-2.06a.69.69,0,0,0-.69.68v.76l-1.89-1.31a.63.63,0,0,0-.8,0l-6.64,4.8a.69.69,0,0,0-.27.45c-4.87,1.82-9,2.19-12.69,1.15-4.59-1.31-8.54-4.1-12.13-6.92l-.15-.12a54.82,54.82,0,0,0-10-6.74,8.54,8.54,0,0,1-1.48,1.2h0a53.64,53.64,0,0,1,10.08,6.55c3.91,3,8,6.08,12.88,7.59,4,1.21,8.49.92,13.5-.87v4.68l1.37-.48v-5.6l6-4.31,2.57,1.8a.7.7,0,0,0,.71.06.72.72,0,0,0,.38-.61V19.72h.68v3a.67.67,0,0,0,.28.55l1.33,1v2.44l-2.68,1.95a.68.68,0,0,0-.29.55v3.22a27.09,27.09,0,0,0-10-.17l-.23,0a31.24,31.24,0,0,0-3.37,1A21.34,21.34,0,0,1,292.41,32c-4.87-2.23-8.91-5.93-13.22-9-4.83-3.46-10.09-6.68-16.18-6.87-4.18-.13-8.38.14-12.57.15v1.7c3.91,0,7.82-.21,11.72-.17a18.55,18.55,0,0,1,6.68,1.13,46.86,46.86,0,0,1,9.65,5.64c3.42,2.47,6.68,5.31,10.33,7.48a46.25,46.25,0,0,0-8,.19,28.6,28.6,0,0,0-10.22,3.1A20.76,20.76,0,0,0,266,38.7l1.23,1.22c.28-.27.57-.54.88-.8.14-.13.29-.25.44-.37l.24-.2s0,0,.05,0l.13-.09a21.42,21.42,0,0,1,4.27-2.48l.26-.12c.63-.26,1.27-.49,1.92-.7a33.47,33.47,0,0,1,10.81-1.48c2.21,0,4.41.18,6.6.39H293a23.8,23.8,0,0,0,10.67,1.63l-.65.73a6.14,6.14,0,0,1-.52.5l-.06,0a1.72,1.72,0,0,1-.47.28.33.33,0,0,1-.1.06l-.09,0-.34.11c-.24.07-.49.13-.74.18-1,.19-1.91.3-2.85.57a13,13,0,0,0-2.74,1.18,9.57,9.57,0,0,0-4,4.63,20.12,20.12,0,0,0-1.22,6.79l-.67,0c-.67.06-1.35.14-2,.23,0,0,.68,2.3.7,2.4a8.83,8.83,0,0,1,.2,2.11A9.39,9.39,0,0,1,287,59.65a12.9,12.9,0,0,1-2.45,3.27h-.91l-1.57.07-1,.09L280,63.2V59.52h2a3.49,3.49,0,0,0,1.71-.46c.24-.21.6-.57.61-.59a4.16,4.16,0,0,0,1.26-3,.69.69,0,0,0-.69-.69h-2.33a4.18,4.18,0,0,0-2.6.91V54.25a2.59,2.59,0,0,0,1.93-.15,2.51,2.51,0,0,0,1.24-1.49,2.51,2.51,0,0,0,3-3,2.51,2.51,0,0,0,1.67-1.75,2.49,2.49,0,0,0-.57-2.36,2.47,2.47,0,0,0,.57-2.35,2.49,2.49,0,0,0-1.67-1.75,2.52,2.52,0,0,0-.68-2.33,2.47,2.47,0,0,0-2.32-.66,2.51,2.51,0,0,0-4.1-1.09,2.51,2.51,0,0,0-4.1,1.09,2.49,2.49,0,0,0-3,1.87,2.64,2.64,0,0,0,0,1.12,2.51,2.51,0,0,0-1.1,4.1,2.52,2.52,0,0,0,1.1,4.11,2.51,2.51,0,0,0,3,3,2.43,2.43,0,0,0,1.32,1.52,2.57,2.57,0,0,0,2,.08v1.54a4.18,4.18,0,0,0-2.66-1h-2.34a.68.68,0,0,0-.68.69,4.11,4.11,0,0,0,1.25,3,2.84,2.84,0,0,0,1.59,1,19.18,19.18,0,0,0,2.84.06v3.93a32.9,32.9,0,0,0-9.82,3.39c0-.14,0-.22,0-.22v-.69l1.05-.38c.94-.35,1.87-.78,2.2-.93a1.89,1.89,0,0,0,1.09-.87v0a2.13,2.13,0,0,0,.19-1.36v-.08a3.67,3.67,0,0,1-.09-.43V61.8c0-.08,0-.16-.06-.26a4.7,4.7,0,0,0-.18-.74,6.49,6.49,0,0,0-.23-.75c0-.08-.05-.16-.08-.24l-.14-.47,0-.05a2.2,2.2,0,0,0-.63-.9,1.57,1.57,0,0,0-.25-.2h0l-.18-.09,0,0A1.72,1.72,0,0,0,269.9,58c-.35,0-1.37.13-2.37.3-.35.06-.73.13-1.09.21a3.37,3.37,0,0,0-.19-.32l-.15-.23a.56.56,0,0,1-.05-.08l0-.06-.37-.49c.21-.29.42-.6.63-.92.55-.84,1.06-1.74,1.23-2a1.87,1.87,0,0,0,.36-1.35v0a2.08,2.08,0,0,0-.64-1.21l-.06-.06s-.15-.14-.33-.3l0,0s-.11-.11-.19-.17a6.1,6.1,0,0,0-.62-.52l-1.18-.89,0,0a2.18,2.18,0,0,0-1.63-.33,1.79,1.79,0,0,0-1,.6c-.27.23-1,.91-1.73,1.64-.26.26-.52.53-.77.8a3.07,3.07,0,0,0-.34-.14l-.31-.11-.37-.14-.2-.07-.13,0c0-1-.07-1.9-.17-2.85l-.08-.62a1.67,1.67,0,0,0-.33-1.08,2.1,2.1,0,0,0-1.42-.85,3.69,3.69,0,0,0-.58-.09h-.14l-.86-.06a10.85,10.85,0,0,0-1.14,0h-.43a2.21,2.21,0,0,0-1.53.68,1.68,1.68,0,0,0-.46,1.06c0,.14-.09.37-.15.65-.1.52-.21,1.14-.29,1.71-.06.4-.11.77-.14,1.11h-.1l-.18,0-.35.09a3.07,3.07,0,0,0-.52.14l-.26.09a31.91,31.91,0,0,0-2.25-2.68,1.76,1.76,0,0,0-1-.7,2.13,2.13,0,0,0-1.67.22l-1.26.74-1.24.9a2.41,2.41,0,0,0-.41.37v2.76c.21.44.49,1.05.81,1.65.15.31.34.65.53,1l-.18.19a3.12,3.12,0,0,0-.32.4h0l-.24.32-.11.16h0a.13.13,0,0,1,0,.06l-.43-.13V59.7l.53.17.93.32.59-1c.11-.17.22-.33.33-.47a1.88,1.88,0,0,0,.18-.24l.21-.29,0,0,.11-.11v0l.64-.7.78-.79-.44-.73-.1-.16c0-.05-.06-.1-.09-.16-.26-.44-.54-.94-.77-1.38-.38-.73-.73-1.52-.9-1.88l.89-.65,1-.55a28.71,28.71,0,0,1,2.33,2.81l0,0,.14.19.53.76.86-.32.15-.06h0l.9-.31h0a.42.42,0,0,1,.16,0l.38-.09a1.36,1.36,0,0,0,.25-.07h0a4.07,4.07,0,0,1,.55-.12l1.18-.15.08-1c0-.15.08-1,.21-1.86.08-.52.18-1.1.28-1.59,0-.18.06-.34.09-.45h.24c.21,0,.57,0,.86,0l.88,0h.23l.05.5c.06.57.11,1.09.13,1.58,0,.77,0,1.51,0,1.89l0,.94,1.26.33.3.08.18.06.19.07.33.11.34.14a3.69,3.69,0,0,1,.43.2,2.84,2.84,0,0,1,.36.17l.13.06.85.44.67-.78.16-.19c.32-.37.71-.78,1.06-1.14.58-.61,1.21-1.17,1.51-1.43l.93.69A4.74,4.74,0,0,1,265,53l.23.2a.6.6,0,0,0,.12.11c-.22.39-.64,1.11-1.08,1.79s-.8,1.16-1.08,1.53l-.56.77.62.73.08.1h0l.69.94v0l0,0,.53.92.06.12,0,.06a.59.59,0,0,0,0,.08l.42.85.93-.22c.37-.08,1.09-.24,1.85-.36s1.66-.24,2.06-.28l0,.15.29.9c.08.34.15.66.22.92a.77.77,0,0,0,0,.15c-.4.18-1.16.52-1.91.81s-1.34.46-1.78.61l-.91.28.07,1v.16c0,.52,0,.88,0,1.16l-.13,1.28h0l0,.14-.1.59c-.64.45-1.26.92-1.86,1.42a28.43,28.43,0,0,1-3.58,1.82,37.1,37.1,0,0,0-17.21.92l.12-.08-.51-.88,0,0a1.22,1.22,0,0,0-.07-.17l-.44-.81-.9.21v4.71c6.13-3.19,15.24-2.91,20.66-1.53Z"/><path id="_240136920" data-name=" 240136920" class="cls-1" d="M253.09,146.82l1.36-1.71a19.92,19.92,0,0,1,2,1.48L255,148.5A17,17,0,0,0,253.09,146.82ZM250.15,145l1.32-1.66c.7.38,1.38.78,2,1.17l-1.34,1.68A22.58,22.58,0,0,0,250.15,145ZM246,143.25l1.41-1.77a31,31,0,0,1,3.06,1.32l-1.34,1.66a27.69,27.69,0,0,0-3.13-1.21Zm-2.21-.57c-.49-.1-1-.18-1.48-.25l1.39-1.81c.24,0,.49,0,.73.09a13.91,13.91,0,0,1,1.84.4l-1.45,1.81c-.34-.09-.69-.17-1-.24Zm15.94,6.75-.92,1.2a11.57,11.57,0,0,1-2.63-1.32l1.38-1.8.87-1.12c-.37-.29-.74-.58-1.1-.89-2.84-2.29-8.54-5.53-12.69-6.11h0c-1-.11-2.07-.21-3.1-.29l-.06,2.33-.1.88v1.48l.07-.11q1,.11,1.95.3a20.49,20.49,0,0,1,10.81,5.63,4.73,4.73,0,0,0,.47.43,9.34,9.34,0,0,0,3.93,1.92,5.8,5.8,0,0,1-1.7,3.21,4.89,4.89,0,0,0-1-1,5.27,5.27,0,0,0-3.54-.81,11.34,11.34,0,0,1-3.07-.5,9.5,9.5,0,0,1-3.35-2.57,11.35,11.35,0,0,0-1.69-2.07,5.23,5.23,0,0,0-2.87-1v1.33a4.06,4.06,0,0,1,1.92.58,16,16,0,0,1,2.09,2.67,14.12,14.12,0,0,0,2.75,2.07,13.14,13.14,0,0,0,4.35.87h0l.21,0a4,4,0,0,1,2.31.45,4.55,4.55,0,0,1,.88.83l-.06,0,.74,1.16.22-.13h0l0,0,.19-.17a8.93,8.93,0,0,0,.85-.56l-.12-.13a8.85,8.85,0,0,0,2.25-4s.09-.4.09-.4c0-.17.12-.94.12-.94a6,6,0,0,1-.74-.08l.68-.89.58-.74.67-.82-3.31-.63,1.64,1.74Z"/><path id="_240137160" data-name=" 240137160" class="cls-1" d="M255.47,129.5a14.29,14.29,0,0,1,7.14,3.39l1-1.79a12.62,12.62,0,0,0-7.17-3.48Z"/><path id="_240136872" data-name=" 240136872" class="cls-1" d="M251.64,136.41a14.54,14.54,0,0,1,7.19,3.5l.95-1.82a12.31,12.31,0,0,0-7.12-3.57Z"/><path id="_240137256" data-name=" 240137256" class="cls-1" d="M253.59,132.82a14.33,14.33,0,0,1,7.17,3.48l1-1.8a12.56,12.56,0,0,0-7.18-3.44Z"/><path id="_240137064" data-name=" 240137064" class="cls-1" d="M250.52,128.9a18.45,18.45,0,0,0-4.41-2.53l0,0c.19-.19.75-1,.49-1.15s-.74,0-1.11.28c0-.38-.18-.79-.42-.87s-.59.82-.61,1.1a.64.64,0,0,0,0,.09,16.28,16.28,0,0,0-3.1-.74l-.06,1.13v1a19.54,19.54,0,0,1,8.23,3.53l1-1.76Z"/><path id="_240137088" data-name=" 240137088" class="cls-1" d="M241.39,131.37a1.28,1.28,0,0,0,.29,0,17.38,17.38,0,0,1,5.84,3.13l.93-1.77a21,21,0,0,0-7-3.46A10.76,10.76,0,0,0,241.39,131.37Z"/><path id="_240136848" data-name=" 240136848" class="cls-1" d="M252.82,124.78l-.32-.18c-.37-.2-.75-.4-1.14-.59a.9.9,0,0,0,.53-.3c.2-.19.76-1,.5-1.14s-.75,0-1.11.28c-.05-.38-.19-.77-.43-.85s-.58.81-.61,1.08a1.34,1.34,0,0,0,0,.4,33.25,33.25,0,0,0-6-1.94,1,1,0,0,0,.3-.47c.09-.25.24-1.2-.07-1.25s-.71.45-.92.85c-.2-.4-.6-.89-.92-.84s-.15,1-.06,1.24l.06.15c-.45-.08-.89-.15-1.34-.21v2a30.84,30.84,0,0,1,10.44,3.69Z"/><path id="_240135912" data-name=" 240135912" class="cls-1" d="M255.44,157.25a4.85,4.85,0,0,0-1.14-1.12,5.23,5.23,0,0,0-3.53-.82,10.74,10.74,0,0,1-3.07-.49,9.25,9.25,0,0,1-3.35-2.58,12.18,12.18,0,0,0-1.69-2.06,5.3,5.3,0,0,0-1.32-.72v1.39l.37.2a15.41,15.41,0,0,1,2.08,2.66,13.71,13.71,0,0,0,2.75,2.06,12.46,12.46,0,0,0,4.35.88h0a4,4,0,0,1,2.51.42,4.87,4.87,0,0,1,.89.83s0,0-.06,0l.74,1.16a11.33,11.33,0,0,0,1.32-.84l-.17-.16c-.24-.26-.47-.55-.7-.83Z"/><path id="_240136440" data-name=" 240136440" class="cls-1" d="M267.78,102.21a.95.95,0,1,0-.95,1,.95.95,0,0,0,.95-1Z"/><path id="_240136224" data-name=" 240136224" class="cls-1" d="M264.07,101.93a.94.94,0,1,0-.94-.94A.94.94,0,0,0,264.07,101.93Z"/><path id="_240135816" data-name=" 240135816" class="cls-1" d="M279.22,102.59l2.58-4.73-1.18-.65L278,102Z"/><path id="_240135960" data-name=" 240135960" class="cls-1" d="M282.18,104.21l2.58-4.74-1.18-.65L281,103.56Z"/><path id="_240136152" data-name=" 240136152" class="cls-1" d="M285.15,105.82l2.58-4.73-1.19-.66L284,105.17Z"/><path id="_240135864" data-name=" 240135864" class="cls-1" d="M263.57,127.69c1,.67,2,1.43,2.51,1.85L259,143.17c-1.16-.81-3.74-2.5-4.68-3s-4.05-1.73-5.43-2.28l7.54-13.39c1.1.39,3.42,1.21,5.1,2A14.16,14.16,0,0,1,263.57,127.69Zm-6.85-15,.06,0,.13.1ZM300,114.65a4.87,4.87,0,0,0-2.21-.2,30.68,30.68,0,0,0-3.89,1c-.86.22-1.71.52-2.57.76a8.16,8.16,0,0,1-2.45.35c-.21,0-.4,0-.61,0l-.28,0h-.11a8.52,8.52,0,0,1-1.31-.29,11.4,11.4,0,0,1-2.24-.9,18.76,18.76,0,0,1-2.14-1.34,13.63,13.63,0,0,0-2.18-1.35,7.61,7.61,0,0,0-2.73-.67,8.45,8.45,0,0,0-2.74.39c-.75.21-1.49.41-2.25.58l-.92.19-.43.07-.2,0h-.1a10.93,10.93,0,0,1-2.62,0h0a1.33,1.33,0,0,0-.21,0,11.68,11.68,0,0,1-3.3-1.11c-.36-.18-.71-.38-1.07-.58l-.72-.43h0c-.13-.09-.28-.17-.41-.25a30.82,30.82,0,0,0-10.11-5.46,37.63,37.63,0,0,0-9-1.66c-.6,0-1.21-.07-1.81-.08v1.75c.44,0,.88,0,1.32,0,.6,0,1.21.08,1.8.14l1,.12.22,0h.09l.56.09a35.88,35.88,0,0,1,4.57,1c.83.24,1.64.52,2.45.83l.61.24.24.09s0,0,.06,0l.22.1a28.75,28.75,0,0,1,4,2.12,24.58,24.58,0,0,1,2.66,1.94s0,0,0,0l0,0a20.86,20.86,0,0,0-1.92,1.84c-.74-.4-1.5-.77-2.26-1.12.24.08.47-.08.67-.28s.76-1,.51-1.14-.76,0-1.12.29c0-.39-.19-.78-.42-.85s-.58.81-.62,1.08a1,1,0,0,0,0,.49,38.36,38.36,0,0,0-6.27-2,1.16,1.16,0,0,0,.26-.28c.16-.22.57-1.08.29-1.21s-.73.18-1,.48c-.12-.38-.33-.75-.58-.78s-.42.91-.41,1.18a1.2,1.2,0,0,0,.06.33,42.15,42.15,0,0,0-4.23-.55,1.46,1.46,0,0,0,.14-.31c.09-.25.24-1.19-.06-1.24s-.72.45-.93.84c-.2-.39-.6-.89-.92-.84s-.15,1-.06,1.24a1.8,1.8,0,0,0,.08.21h-.16l-.87,0,0,2.47h.83a36,36,0,0,1,15.51,4,19.32,19.32,0,0,0-1.35,2.22,26.09,26.09,0,0,0-2.4-1.11l.22-.18c.2-.19.76-1,.51-1.14s-.76,0-1.13.28c-.05-.38-.18-.77-.42-.85s-.58.8-.62,1.08a2.18,2.18,0,0,0,0,.25,31.91,31.91,0,0,0-4.07-1.14l0-.06c.16-.23.57-1.09.29-1.22s-.73.17-1,.48c-.12-.38-.33-.76-.58-.79s-.42.91-.41,1.18a.28.28,0,0,0,0,.09c-.93-.15-1.86-.27-2.8-.34a1.51,1.51,0,0,0,.12-.26c.08-.26.24-1.2-.06-1.24s-.73.43-.93.84c-.2-.41-.6-.89-.92-.84s-.15,1-.06,1.24a1.66,1.66,0,0,0,.06.16h-.71l0,2.17.75,0c8.2.25,15.69,3.57,19.95,8.58-1.88-.82-3.78-1.56-5.72-2.23l-.79-.27-7.94,14a13.64,13.64,0,0,0-6.19-2.79s-.08.08-.1.21v1l0,.53a11,11,0,0,1,5.68,3h0l1,.39s4.28,1.68,5.53,2.35,4.76,3.12,4.79,3.14l.91.64,8.49-16-.57-.51a6.31,6.31,0,0,0-.69-.58l-.22-.48a19.58,19.58,0,0,0-4.69-6.08,18.24,18.24,0,0,1,3.08-3.65l0-2.65a23.33,23.33,0,0,0-4.79,4.93c-.52-.39-1.06-.76-1.6-1.1a1.75,1.75,0,0,0,.18-.29,11.79,11.79,0,0,1,2.71-3.89,21.26,21.26,0,0,1,2-1.8,12.61,12.61,0,0,0,6.33,1.64,19.1,19.1,0,0,0,3.75-.57c.84-.2,1.66-.48,2.5-.67l.3-.06h.2a4.3,4.3,0,0,1,.62,0,4.83,4.83,0,0,1,1.17.12c1.64.36,2.89,1.54,4.34,2.45a13.75,13.75,0,0,0,4.8,1.9,9.84,9.84,0,0,0,2.65.11,13.63,13.63,0,0,0,2.71-.59l2.3-.67c.61-.18,1.22-.38,1.84-.54l1-.2h0l.12,0,.24,0a4.87,4.87,0,0,1,.54,0l.26,0H299a4,4,0,0,1,.59.16s0,0,0,0l.19.11.34.2.27.18c1,0,2-.09,3-.17-.58-.35-1.14-.72-1.71-1.09a8.25,8.25,0,0,0-1.66-.94Z"/><path id="_240136368" data-name=" 240136368" class="cls-1" d="M301.89,110.82a9.55,9.55,0,0,0-2.95-.49l1.54-6.07,1.82.46Zm-4.74-.31c-.71.16-1.4.37-2.11.54s-1.17.33-1.76.51l3.74-8.17,1.82.46ZM268.32,91.88l4.08,1.35-5.49,3Zm-3.2,4.37c-.57-.32-.93-.55-.93-.55a24.72,24.72,0,0,0-2.55-1.89l.09-.16L266.5,92Zm-5.24-3.75-.28.1a35.12,35.12,0,0,0-13.46-4,37.38,37.38,0,0,0-4-.07l1.75-3.21c.36,0,.73,0,1.1,0a29.74,29.74,0,0,1,16.17,4.72Zm15-3.51-.95,3-3.81-1.27Zm1.88-.31,2.65.75-3.5,1.9.85-2.65Zm13.47-5.13-8.7,4.72L279,87.55l11.27-4Zm.34,17.52-3.88,7.1L275.1,101.9,279,94.79l11.58,6.28ZM287,93.88l1.8,4.72-7.27-3.94,5.47-.78Zm26.34,18.68c-.61.13-1.2.31-1.8.49-.41.1-.81.22-1.23.29h-.46c-.22,0-.44,0-.65,0a1.24,1.24,0,0,1-.25,0l-.41-.07a19.06,19.06,0,0,1-3.53-1.12l-.18-.06-.05,0a.08.08,0,0,1-.06,0l-.42-.18c-.26-.11-.53-.23-.8-.33l1.05-16a5.44,5.44,0,0,1-1.7.18l-.47,7.39-1.52-.39,1.78-7a5.16,5.16,0,0,1-1.63-.42l-1.78,7-1.52-.39,3.11-6.71a5.27,5.27,0,0,1-1.4-1l-7.87,17.09-.43.87h0a9.36,9.36,0,0,1-2,0l-.58-.09a12.76,12.76,0,0,1-2.16-.65l-.07,0-.06,0-.18-.08-.52-.25c-.34-.17-.67-.35-1-.55-.65-.39-1.26-.84-1.88-1.28a8.35,8.35,0,0,0-4.42-1.63,16.82,16.82,0,0,0-4.53.87c-.53.13-1.06.24-1.6.33l-.36.05h0l-.2,0a11.42,11.42,0,0,1-2.48,0h0l-.27,0h0a15.51,15.51,0,0,0,3.56-8.15l.05-.68c0-.27,0-.56,0-.84h0v-.69a11.31,11.31,0,0,1-1.54,0,10.36,10.36,0,0,1-3-.81L291,85l-1.95,3.72a.66.66,0,0,0,.25.9h0l.29.16a1.68,1.68,0,0,1-1.61,3,1.69,1.69,0,0,1-.67-2.28l-1.18-.64a3,3,0,0,0-.11,2.64l-6.57,1-.46-.25a.67.67,0,0,0-.9.26h0l-4.52,8.29a.66.66,0,0,0,.26.9h0l12.76,6.92a.68.68,0,0,0,.92-.27l4.51-8.29a.68.68,0,0,0-.26-.92l-1-.55-1.83-5.32a3,3,0,0,0,2.93-3.11,3,3,0,0,0-1.29-2.39l2.82-5.07,0,0-.78-2.86L262.94,91.42l.05-.09,1.08-2-.55-.28a28.45,28.45,0,0,0-5.45-3.16l1.17-2.13,1-1.91,1.24-2.11-7.36-.47,4,3.58-1.38,2.52a34,34,0,0,0-11.71-2.21h-.05q-1.23,0-2.46.06l-1.24,2.28,0,0v5.21a34.49,34.49,0,0,1,4.43,0c6.65.51,13.05,3,17.34,6.86.17.15.78.57.78.57a13.47,13.47,0,0,0,6.29,2.31,11.1,11.1,0,0,1-3.58,7.61c-.34-.13-.67-.28-1-.44a23.89,23.89,0,0,1-2.25-1.3A30.56,30.56,0,0,0,253.23,101a37.55,37.55,0,0,0-9-1.67c-1-.06-1.94-.09-2.92-.08v1.74c.82,0,1.63,0,2.44.06.6,0,1.2.08,1.8.14l1,.11.22,0h.09a35.44,35.44,0,0,1,7.58,1.93l.61.24.29.13c.49.21,1,.43,1.46.67a27,27,0,0,1,5.42,3.48l0,0a.57.57,0,0,0,.15.12,15.19,15.19,0,0,0,7.4,2.75,14.78,14.78,0,0,0,3.25-.29c.57-.11,1.13-.24,1.7-.37.77-.2,1.53-.47,2.32-.62a5.63,5.63,0,0,1,3.95.8c.63.38,1.21.82,1.82,1.25a14.06,14.06,0,0,0,1.95,1.15,12.51,12.51,0,0,0,4.49,1.31,10.87,10.87,0,0,0,3.93-.48l.79-.23c.67-.21,1.35-.38,2-.57l.42-.13.18,0c.31-.08.62-.16.93-.22l.33-.06H298l.29,0h.17a6.37,6.37,0,0,1,1.38,0h.1l.32.06a9.32,9.32,0,0,1,1.35.37l.12.05.86.34.41.17.15.06.15.06.08,0,1.53.64a18.28,18.28,0,0,0,3.41,1,6.59,6.59,0,0,0,2.93,0c.48-.11,1-.26,1.45-.39l.9-.24.33-.07h.21c.12,0,.24,0,.36,0l.12,0,.13,0a5.77,5.77,0,0,1,.84.23c.75-.19,1.48-.4,2.2-.62a5.05,5.05,0,0,0-2.78-1.32,4.32,4.32,0,0,0-1.68,0Z"/><path id="_240136176" data-name=" 240136176" class="cls-1" d="M330.9,69.14s0-.11,0-.15l-.53-1.32a.61.61,0,0,0,.18-.61.7.7,0,0,0-.55-.56c-.1,0-.14,0-.18-.19a.94.94,0,0,0-.18-.36c-.37-.39-.76-.78-1.12-1.15a.53.53,0,0,0-.7,0,.55.55,0,0,0-.21.39.58.58,0,0,0,.16.43l.23.23c.24.24.48.49.73.73l.07.12a.67.67,0,0,0,0,1s0,0,0,0a.84.84,0,0,0,.51.24c.17.45.34.89.52,1.31a.35.35,0,0,0,.25.22l.47,0H331l-.09-.34Z"/><path id="_240136344" data-name=" 240136344" class="cls-1" d="M327.48,73.53c.27.18.56.36.86.52,0-.12,0-.26.08-.4a6.6,6.6,0,0,1,1.25-2.37l.1-.11a.81.81,0,0,1,.22,0l3.59.17h.21a.56.56,0,0,1,.09.13,6.59,6.59,0,0,1,1,2.5,4,4,0,0,1,0,1.42l-.07.39c.54-.06,1.11-.16,1.62-.27v-.21a6.2,6.2,0,0,0-.07-1.61,8.07,8.07,0,0,0-1.26-3.08,1.79,1.79,0,0,0-.57-.59,1.84,1.84,0,0,0-.94-.23l-3.59-.18a2.06,2.06,0,0,0-.95.14,1.9,1.9,0,0,0-.63.53A8.06,8.06,0,0,0,327,73.15l.1.09C327.2,73.34,327.33,73.44,327.48,73.53Z"/></g></g></g></svg>