<svg xmlns="http://www.w3.org/2000/svg" viewBox="0 0 422.86 157.66"><defs><style>.cls-1{fill:#fff;}</style></defs><title>logo-higa0</title><g id="Capa_2" data-name="Capa 2"><g id="Capa_1-2" data-name="Capa 1"><path class="cls-1" d="M239.44,67.56a15.66,15.66,0,0,1,5.08,3.24l-3.47,4a13.1,13.1,0,0,0-3.66-2.18,10.77,10.77,0,0,0-3.91-.7,6.13,6.13,0,0,0-3.64,1,3.16,3.16,0,0,0-1.36,2.75,3.41,3.41,0,0,0,.57,2,5.14,5.14,0,0,0,2,1.48,34.21,34.21,0,0,0,4.31,1.59,19.73,19.73,0,0,1,7.62,4q2.53,2.4,2.53,6.86a9.86,9.86,0,0,1-1.59,5.57,10.5,10.5,0,0,1-4.6,3.76,17,17,0,0,1-7.08,1.36,19.06,19.06,0,0,1-7.23-1.29,16.34,16.34,0,0,1-5.44-3.51l3.71-4.11A15.32,15.32,0,0,0,227.39,96a12.18,12.18,0,0,0,4.65.87,6.78,6.78,0,0,0,4.28-1.24,4.11,4.11,0,0,0,1.62-3.47,4.29,4.29,0,0,0-.58-2.3,5.07,5.07,0,0,0-2-1.66,23.69,23.69,0,0,0-4-1.53q-5.6-1.74-8-4.16a9.37,9.37,0,0,1-.86-11.41,9.78,9.78,0,0,1,4.26-3.39A15.14,15.14,0,0,1,233,66.5,17.81,17.81,0,0,1,239.44,67.56Z"/><path class="cls-1" d="M269,101.55,267,93.88H256.28l-1.93,7.67h-7.57l10.54-34.26h8.86l10.5,34.26ZM257.67,88.48h8l-4-15.79Z"/><path class="cls-1" d="M306,101.55h-9.36L285.72,74.37c.29,2.34.54,4.55.72,6.61s.27,4.48.27,7.25v13.32h-6.59V67.29h9.16l11.09,27.23a83,83,0,0,1-1-12.18v-15H306Z"/><path class="cls-1" d="M333.79,96.45a13.91,13.91,0,0,1-1.36,6.54,10.54,10.54,0,0,1-3.64,4,24.88,24.88,0,0,1-5.54,2.55l-1.93-5.2a9.58,9.58,0,0,0,3.29-1.93,5.61,5.61,0,0,0,1.51-2.52,14.61,14.61,0,0,0,.39-3.72V67.29h7.28Z"/><path class="cls-1" d="M362.38,68.6a13.53,13.53,0,0,1,5.25,6.12,23.26,23.26,0,0,1,1.83,9.7,23.18,23.18,0,0,1-1.83,9.63,13.69,13.69,0,0,1-5.25,6.16,15,15,0,0,1-8.11,2.13,15.35,15.35,0,0,1-8.15-2.1,13.51,13.51,0,0,1-5.27-6.14A23.16,23.16,0,0,1,339,84.42a22.87,22.87,0,0,1,1.85-9.58,14,14,0,0,1,5.3-6.19,15,15,0,0,1,8.1-2.15A15.16,15.16,0,0,1,362.38,68.6ZM348.6,74.91c-1.28,2-1.91,5.15-1.91,9.51s.64,7.52,1.93,9.51a6.32,6.32,0,0,0,5.65,3,6.25,6.25,0,0,0,5.64-3q1.88-2.94,1.88-9.53t-1.88-9.53a6.88,6.88,0,0,0-11.31,0Z"/><path class="cls-1" d="M391.45,67.56a15.72,15.72,0,0,1,5.07,3.24l-3.46,4a13.14,13.14,0,0,0-3.67-2.18,10.77,10.77,0,0,0-3.91-.7,6.08,6.08,0,0,0-3.63,1,3.14,3.14,0,0,0-1.37,2.75,3.41,3.41,0,0,0,.57,2,5.18,5.18,0,0,0,2,1.48,34,34,0,0,0,4.3,1.59,19.86,19.86,0,0,1,7.63,4,9,9,0,0,1,2.52,6.86,9.85,9.85,0,0,1-1.58,5.57,10.56,10.56,0,0,1-4.6,3.76,17.12,17.12,0,0,1-7.09,1.36,19.1,19.1,0,0,1-7.23-1.29,16.45,16.45,0,0,1-5.44-3.51l3.71-4.11A15.32,15.32,0,0,0,379.39,96a12.2,12.2,0,0,0,4.66.87,6.8,6.8,0,0,0,4.28-1.24,4.13,4.13,0,0,0,1.61-3.47,4.29,4.29,0,0,0-.57-2.3,5,5,0,0,0-2-1.66,23.35,23.35,0,0,0-4-1.53q-5.59-1.74-8-4.16a9.39,9.39,0,0,1-.87-11.41,9.78,9.78,0,0,1,4.26-3.39A15.19,15.19,0,0,1,385,66.5,17.85,17.85,0,0,1,391.45,67.56Z"/><path class="cls-1" d="M422.76,67.29l-.79,5.3H409.59V81.5h10.79v5.25H409.59V96.2h13.27v5.35H402.31V67.29Zm-6.09-12.53,2.67,5.35-11.58,4.21L406,60.71Z"/><path class="cls-1" d="M238.3,49.58V35.32H227.53V49.58h-6.92V17h6.92V29.87H238.3V17h6.91V49.58Z"/><path class="cls-1" d="M272.47,18.28a12.87,12.87,0,0,1,5,5.8,22.11,22.11,0,0,1,1.75,9.22,22,22,0,0,1-1.75,9.15,13,13,0,0,1-5,5.86,14.34,14.34,0,0,1-7.71,2,14.57,14.57,0,0,1-7.74-2,12.84,12.84,0,0,1-5-5.83,22.15,22.15,0,0,1-1.74-9.2A21.57,21.57,0,0,1,252,24.2a13.29,13.29,0,0,1,5-5.88,15.69,15.69,0,0,1,15.4,0Zm-13.1,6q-1.81,2.82-1.81,9t1.84,9a6.51,6.51,0,0,0,10.72,0q1.78-2.8,1.78-9.06t-1.78-9a6.55,6.55,0,0,0-10.75,0Z"/><path class="cls-1" d="M300.08,17.29a14.8,14.8,0,0,1,4.82,3.08l-3.29,3.81a12.77,12.77,0,0,0-3.48-2.07,10.4,10.4,0,0,0-3.72-.66,5.85,5.85,0,0,0-3.45.92,3,3,0,0,0-1.3,2.61,3.26,3.26,0,0,0,.54,1.93,5,5,0,0,0,1.91,1.41,30.81,30.81,0,0,0,4.09,1.5,18.84,18.84,0,0,1,7.24,3.84,8.55,8.55,0,0,1,2.4,6.51,9.4,9.4,0,0,1-1.5,5.29A10,10,0,0,1,300,49a16.08,16.08,0,0,1-6.72,1.3,18.26,18.26,0,0,1-6.87-1.22,15.83,15.83,0,0,1-5.17-3.34l3.52-3.91a14.23,14.23,0,0,0,3.91,2.42,11.56,11.56,0,0,0,4.42.83,6.48,6.48,0,0,0,4.07-1.18,3.91,3.91,0,0,0,1.53-3.29,4.09,4.09,0,0,0-.55-2.19,4.78,4.78,0,0,0-1.85-1.57,21.74,21.74,0,0,0-3.81-1.46c-3.54-1.1-6.08-2.42-7.6-4a8.19,8.19,0,0,1-2.28-6A8.22,8.22,0,0,1,284,20.63a9.39,9.39,0,0,1,4-3.23,14.65,14.65,0,0,1,5.88-1.12A16.85,16.85,0,0,1,300.08,17.29Z"/><path class="cls-1" d="M330.32,19.66q3.49,2.64,3.5,7.86,0,5.46-3.48,8.2T321,38.48h-3.72v11.1H310.4V17h10.07Q326.81,17,330.32,19.66ZM325.07,32q1.6-1.37,1.6-4.51,0-5.5-6.3-5.51h-3.06V33.4h3.16A6.88,6.88,0,0,0,325.07,32Z"/><path class="cls-1" d="M344.81,17V49.58H337.9V17Z"/><path class="cls-1" d="M373.13,17l-.75,5.41h-8.24V49.58h-6.91V22.44h-8.65V17Z"/><path class="cls-1" d="M391.4,49.58l-1.83-7.29H379.36l-1.84,7.29h-7.19l10-32.55h8.42l10,32.55ZM380.68,37.16h7.57l-3.81-15Z"/><path class="cls-1" d="M408.93,17V44h12.88l-.75,5.55H402V17Z"/><path class="cls-1" d="M236.66,116.73a7.4,7.4,0,0,1,2.82,6.32q0,4.38-2.8,6.6a11.78,11.78,0,0,1-7.49,2.21h-3v8.92h-5.56V114.61h8.1Q233.84,114.61,236.66,116.73Zm-4.21,10a4.56,4.56,0,0,0,1.28-3.63q0-4.42-5.07-4.43H226.2v9.15h2.54A5.59,5.59,0,0,0,232.45,126.68Z"/><path class="cls-1" d="M258.53,114.61l-.61,4h-9.45v6.81h8.24v4h-8.24v7.22h10.14v4.08h-15.7V114.61Z"/><path class="cls-1" d="M271.14,130.53h-2.83v10.25h-5.56V114.61h8.16q5.26,0,7.91,2a7.79,7.79,0,0,1,1.38,10.12,9.71,9.71,0,0,1-3.91,2.83l6.77,11.27h-6.32Zm-2.83-3.93h2.91a4.92,4.92,0,0,0,3.36-1,4,4,0,0,0,1.14-3.16,3.49,3.49,0,0,0-1.19-2.93,6.07,6.07,0,0,0-3.73-.93h-2.49Z"/><path class="cls-1" d="M301.45,114.82a13.48,13.48,0,0,1,3.83,2.33l-2.91,3a11.81,11.81,0,0,0-2.63-1.55,7.37,7.37,0,0,0-2.78-.49,5.82,5.82,0,0,0-4.82,2.36q-1.83,2.37-1.83,7.21,0,5.1,1.42,7.32a4.86,4.86,0,0,0,4.4,2.21,8,8,0,0,0,3.9-.95v-6.39h-3.67l-.57-4h9.64v12.9a18.72,18.72,0,0,1-4.4,1.95,17,17,0,0,1-4.79.7q-5.78,0-8.77-3.48t-3-10.25a15.57,15.57,0,0,1,1.63-7.37,11.22,11.22,0,0,1,4.41-4.7,12.37,12.37,0,0,1,6.22-1.58A12.85,12.85,0,0,1,301.45,114.82Z"/><path class="cls-1" d="M324.47,140.78,323,134.92h-8.21l-1.47,5.86h-5.79l8.05-26.17h6.77l8,26.17Zm-8.62-10h6.09l-3.06-12.07Z"/><path class="cls-1" d="M359.14,140.78h-5.45l-.56-10.62q-.27-4.77-.27-8.1c0-1.18,0-2,0-2.57L348.48,138h-5.26l-4.73-18.54q.15,2.31.15,5.19c0,2-.05,3.92-.15,5.63l-.57,10.51h-5.4l2-26.17h7.07l4.31,18,4.05-18h7.15Z"/><path class="cls-1" d="M369.11,114.61v26.17h-5.56V114.61Z"/><path class="cls-1" d="M394.31,140.78h-7.15L378.84,120c.23,1.79.41,3.47.55,5s.21,3.42.21,5.54v10.17h-5V114.61h7l8.47,20.8a63.83,63.83,0,0,1-.75-9.3v-11.5h5Z"/><path class="cls-1" d="M416.38,115.61a10.45,10.45,0,0,1,4,4.68,20.29,20.29,0,0,1,0,14.76,10.48,10.48,0,0,1-4,4.71,11.46,11.46,0,0,1-6.21,1.63,11.71,11.71,0,0,1-6.22-1.61,10.27,10.27,0,0,1-4-4.69,17.66,17.66,0,0,1-1.4-7.39,17.44,17.44,0,0,1,1.41-7.32,10.72,10.72,0,0,1,4.05-4.73,11.45,11.45,0,0,1,6.18-1.64A11.62,11.62,0,0,1,416.38,115.61Zm-10.53,4.83c-1,1.51-1.46,3.93-1.46,7.26s.49,5.75,1.47,7.26a4.83,4.83,0,0,0,4.31,2.27,4.76,4.76,0,0,0,4.31-2.25c1-1.5,1.44-3.93,1.44-7.28s-.47-5.78-1.44-7.28a5.25,5.25,0,0,0-8.63,0Z"/><path class="cls-1" d="M0,93.56a4.43,4.43,0,0,1,2.59.25C8.8,95.26,15,96.88,21.24,98c11.1,2,22.27,1.94,33.48,1.35C65,98.84,75,96.63,84.93,93.88a123,123,0,0,0,19.64-7.4c7.64-3.59,14.94-7.88,22.84-11,12.37-4.81,25-8,38.41-7.79,10.61.18,20.79,2.18,30.19,7.29a75.89,75.89,0,0,1,9.86,6.2,3.23,3.23,0,0,1,1.33,1.44,6.8,6.8,0,0,1-2.76-.32,54.78,54.78,0,0,0-14.95-1c-1.42.08-2.85.11-4.27.17-1.78.07-2.13.4-2.05,2.23A24.2,24.2,0,0,1,182,93.06c-2.95,8.45-10.3,15.75-22,15.82-7.61.05-15.23,0-22.84.05-2.42,0-2.47.06-2.47,2.46,0,7.38-.1,14.75,0,22.12a22.71,22.71,0,0,1-8.3,18.32A21.17,21.17,0,0,1,114.94,157a83,83,0,0,1-22.76-.16,21.71,21.71,0,0,1-17.92-19.27c-.56-6.08-.15-12.17-.27-18.26a14.62,14.62,0,0,1,0-1.48c.1-1.32-.51-1.83-1.83-1.82-5,0-9.93.07-14.89-.14a86.94,86.94,0,0,1-12.24-1.64A103.22,103.22,0,0,1,6.15,97.81,65.21,65.21,0,0,0,0,93.56Z"/><path class="cls-1" d="M68.19,63.89c-6.24,0-12.48,0-18.73,0C44,63.91,41,67,41,72.42c0,4.72,0,9.44,0,14.16,0,1.19-.26,1.67-1.55,1.55-4.25-.39-8.51-.7-12.77-1a1.44,1.44,0,0,1-1.54-1.59c.13-6.27-.54-12.56.72-18.8A23,23,0,0,1,43.93,49.06c3.77-.7,7.54-.43,11.31-.47,5.36-.06,10.72,0,16.07,0,2.59,0,2.71-.12,2.71-2.65,0-7.52.21-15-.06-22.56C73.56,12.64,81.88,2.07,93.58.43,99-.33,104.37.16,109.77.11A25.23,25.23,0,0,1,129,8.3a18.06,18.06,0,0,1,5.18,12c.36,8.54.6,17.09.55,25.64,0,2.37.25,2.63,2.62,2.63,6,0,12.09-.09,18.13,0,3.67.05,7.38-.09,11,.8a21.62,21.62,0,0,1,10.56,6.67c.19.2.42.53.37.74-.1.43-.57.32-.88.28-1.26-.16-2.5-.44-3.77-.57a87.47,87.47,0,0,0-33.62,3.33,77.15,77.15,0,0,0-8.48,2.92c-3.49,1.49-7.23,1.14-10.9,1.14-.67,0-1-.36-1-1s0-1.28,0-1.92c0-8.6.12-17.2-.06-25.8-.08-4.46.1-8.93-.22-13.38A6.37,6.37,0,0,0,112.59,16c-5.6-.48-11.2-.15-16.8-.15-3.59,0-6.63,4-6.62,8.26q0,17.46.1,34.94c0,1-.1,2.07,0,3.09.14,1.28-.31,1.79-1.61,1.77-4.13,0-8.26,0-12.39,0Z"/></g></g></svg>