<svg xmlns="http://www.w3.org/2000/svg" viewBox="0 0 517.78 157.66"><defs><style>.cls-1{fill:#fff;}</style></defs><title>logo-origen0</title><g id="Capa_2" data-name="Capa 2"><g id="Capa_1-2" data-name="Capa 1"><path class="cls-1" d="M79,0a78.83,78.83,0,1,0,79,78.83C158,35.34,122.52,0,79,0Zm0,142.71a63.88,63.88,0,1,1,64-63.88A64,64,0,0,1,79,142.71Z"/><path class="cls-1" d="M102.65,98.64,132,94.75l-2.14-16.31-21.55,2.85h-.19a1.39,1.39,0,0,1-1.23-.71,1.48,1.48,0,0,1,.19-1.62l19.81-22.78L114.43,45.37,89.77,73.65a1.52,1.52,0,0,1-1.55.39,1.4,1.4,0,0,1-.91-1.29V31.65H70.81V72.81a1.41,1.41,0,0,1-.91,1.3,1.35,1.35,0,0,1-.52.06,1.5,1.5,0,0,1-1-.45L43.69,45.44,31.26,56.24,51.07,79a1.48,1.48,0,0,1,.19,1.61,1.38,1.38,0,0,1-1.23.72h-.19L28.28,78.51,26.15,94.82,55.47,98.7a1.42,1.42,0,0,1,1.16.91,1.38,1.38,0,0,1-.26,1.42l-9.45,10.36,12.17,11.13,19-20.78a1.42,1.42,0,0,1,2.07,0l19,20.78,12.17-11.13L101.94,101a1.38,1.38,0,0,1-.26-1.42A1,1,0,0,1,102.65,98.64Z"/><path class="cls-1" d="M420.18,45.63c-18.32,0-31.07,13.53-31.07,32.94,0,18.51,14.56,31.46,35.47,31.46h17.47V96.57H424.84c-10,0-16.7-4.47-18.64-12.3a.49.49,0,0,1,.13-.52.79.79,0,0,1,.52-.26h42.91a37.73,37.73,0,0,0,.38-4.92C450.14,57.67,439.21,45.63,420.18,45.63ZM434,73a.68.68,0,0,1-.45.19h-26.8c-.19,0-.39-.06-.45-.19a.5.5,0,0,1-.13-.52c.84-6.73,5.05-13.92,14.24-13.92,8,0,13,5,13.85,13.92C434.16,72.68,434.16,72.88,434,73Z"/><path class="cls-1" d="M254.49,64.72V110h16V65.24a4.64,4.64,0,0,1,4.66-4.66h14.1V47.12H272.16C261.09,47.12,254.49,53.72,254.49,64.72Z"/><path class="cls-1" d="M175,79.35c0,18.38,14.63,32.23,34,32.23s34-13.85,34-32.23a31.14,31.14,0,0,0-5.44-17.73.75.75,0,0,1-.06-.65.67.67,0,0,1,.58-.33h12.43V47.12H209C190,47.12,175,61.29,175,79.35Zm51.71,0c0,11.07-7.31,18.77-17.73,18.77s-17.74-7.7-17.74-18.77,7.45-19,17.74-19S226.72,68.35,226.72,79.35Z"/><path class="cls-1" d="M350.86,45.63c-19.87,0-33.2,13.07-33.2,32.43,0,17,9.51,28.86,25.5,31.58a.66.66,0,0,1,.45.26.5.5,0,0,1,.07.52,26.4,26.4,0,0,0-.72,6.73c0,12.68,7.9,20.26,21.1,20.26,13.47,0,20-7.51,20-22.92V79.29C384.13,58.25,371.7,45.63,350.86,45.63Zm17.28,71.19c0,3.69-.58,7.45-5.18,7.45-2.59,0-5.17-2.46-5.17-8v-.46c-.07-3-.13-12,9.25-21.16a.59.59,0,0,1,.45-.2c.07,0,.2,0,.26.07a.62.62,0,0,1,.39.58Zm0-35.85a.68.68,0,0,1-.32.58c-7.64,4.34-13.66,9.51-17.93,15.4a.57.57,0,0,1-.52.26h-.06C340.12,96,333.9,88.28,333.9,78.06c0-11.2,7-19,17-19,10.8,0,17.28,7.31,17.28,19.54V81Z"/><rect class="cls-1" x="295.13" y="47.12" width="16.12" height="62.91"/><path class="cls-1" d="M487.1,45.63a35,35,0,0,0-15.27,3.24.43.43,0,0,1-.26.06.5.5,0,0,1-.33-.13.66.66,0,0,1-.32-.52V47.12H456.49V110h16V73.78a14.76,14.76,0,0,1,29.52,0V110h15.79V73.78C517.78,57.21,505.16,45.63,487.1,45.63Z"/></g></g></svg>